<?xml version="1.0" encoding="utf-8"?>
<!-- Generator: Adobe Illustrator 24.0.2, SVG Export Plug-In . SVG Version: 6.00 Build 0)  -->
<svg version="1.1" id="Layer_1" xmlns="http://www.w3.org/2000/svg" xmlns:xlink="http://www.w3.org/1999/xlink" x="0px" y="0px"
	 viewBox="0 0 275 179" style="enable-background:new 0 0 275 179;" xml:space="preserve">
<style type="text/css">
	.st0{fill-rule:evenodd;clip-rule:evenodd;fill:#9C090F;}
	.st1{fill:#FFFFFF;}
	.st2{fill-rule:evenodd;clip-rule:evenodd;fill:#FFFFFF;stroke:#FFFFFF;}
	.st3{fill-rule:evenodd;clip-rule:evenodd;fill:#FFFFFF;stroke:#FFFFFF;stroke-width:0.5;}
	.st4{fill-rule:evenodd;clip-rule:evenodd;fill:#FFFFFF;stroke:#FFFFFF;stroke-width:0.3;}
	.st5{fill-rule:evenodd;clip-rule:evenodd;fill:#FFFFFF;}
	.st6{fill:#FFFFFF;stroke:#FFFFFF;stroke-width:0.5;}
	.st7{fill-rule:evenodd;clip-rule:evenodd;fill:#FFFFFF;stroke:#FFFFFF;stroke-width:0.4;}
</style>
<g>
	<path class="st0" d="M7.82,90.62c0-45.34,58.6-82.1,130.74-82.1s130.53,36.75,130.53,82.1c0,45.23-58.39,81.99-130.53,81.99
		C66.42,172.61,7.82,135.85,7.82,90.62L7.82,90.62z"/>
	<g>
		<path class="st1" d="M94.69,93.89c-0.35-0.12-0.69-0.2-1.04-0.26c-0.33-0.06-0.68-0.1-1.03-0.1c-1.41,0-2.83,0.32-4.31,0.93
			c-0.43,0.18-0.85,0.38-1.28,0.6v-0.77c2.07-1.07,3.89-1.6,5.47-1.6c0.25,0,0.54,0.03,0.87,0.06c0.31,0.06,0.81,0.16,1.49,0.3V92.3
			c0-1.23-0.39-2.18-1.16-2.81c-0.77-0.67-1.85-0.99-3.29-0.99c-1.04,0-2.17,0.22-3.38,0.63v-1.07c1.16-0.28,2.26-0.43,3.29-0.43
			c1.84,0,3.25,0.42,4.19,1.22c0.94,0.81,1.42,1.98,1.42,3.56c0,0.05,0,0.2-0.02,0.41c-0.02,0.2-0.04,0.38-0.04,0.53
			c0.97,0.35,1.68,0.89,2.17,1.6c0.48,0.73,0.72,1.62,0.72,2.71c0,1.34-0.37,2.65-1.1,3.93c-0.74,1.27-1.78,2.46-3.15,3.56
			c-0.71,0.55-1.39,1.02-2.05,1.4c-0.67,0.38-1.1,0.55-1.26,0.55c-0.08,0-0.15-0.02-0.23-0.1c-0.07-0.05-0.11-0.13-0.11-0.19
			c0-0.2,0.33-0.51,0.99-0.95c0.44-0.32,0.81-0.57,1.06-0.79c1.59-1.17,2.79-2.37,3.58-3.62c0.81-1.24,1.22-2.51,1.22-3.75
			c0-0.79-0.16-1.45-0.45-1.96c-0.31-0.5-0.81-0.95-1.55-1.39c-0.96,3.46-2.94,6.52-5.9,9.23c-0.94,0.87-1.87,1.6-2.76,2.2v-1.21
			c0.74-0.53,1.51-1.17,2.28-1.9C92.12,100.04,93.92,97.12,94.69,93.89z M87.04,95.06c-1.06,0.57-2.17,1.3-3.27,2.19
			c-1.43,1.11-2.51,2.26-3.27,3.44c-0.76,1.19-1.12,2.33-1.12,3.48c0,0.69,0.23,1.27,0.67,1.76c0.45,0.48,1,0.71,1.68,0.71
			c1.62,0,3.39-0.69,5.3-2.06v1.21c-1.85,1.25-3.58,1.86-5.15,1.86c-1.1,0-1.99-0.3-2.63-0.87c-0.64-0.6-0.95-1.4-0.95-2.43
			c0-0.41,0.06-0.87,0.18-1.35c0.12-0.48,0.31-1.03,0.6-1.7c-2.38,2.24-4.71,4.18-7.08,5.82c-2.33,1.64-4.71,3.02-7.15,4.17
			c-0.27,0.58-0.48,1.11-0.62,1.61c-0.14,0.5-0.19,0.99-0.19,1.44c0,1.08,0.31,1.94,0.91,2.55c0.62,0.61,1.47,0.91,2.55,0.91
			c1.2,0,2.69-0.44,4.49-1.33c1.8-0.87,4.28-2.41,7.45-4.59l0.17-0.1c2.13-1.54,3.48-2.3,4.04-2.3c0.02,0,0.04,0,0.08,0.02
			c0.02,0.02,0.04,0.06,0.04,0.08c0,0.1-0.54,0.73-1.64,1.88c-1.08,1.15-2.05,2.41-2.88,3.82c-0.21,0.4-0.56,0.99-1,1.78
			c-2.2,3.9-4.04,6.6-5.51,8.16c-1.8,1.88-3.96,3.34-6.47,4.4c-2.54,1.07-5.13,1.59-7.8,1.59c-3.41,0-6.15-0.81-8.24-2.45
			c-2.07-1.64-3.11-3.78-3.11-6.38c0-2.16,0.76-3.98,2.26-5.44c1.53-1.47,3.38-2.2,5.61-2.2c1.64,0,3.01,0.45,4.11,1.38
			c1.12,0.91,1.66,2.06,1.66,3.42c0,1.6-0.65,3.03-1.97,4.25c-1.33,1.23-2.85,1.84-4.6,1.84c-0.35,0-0.71-0.04-1.1-0.1
			c-0.37-0.08-0.76-0.18-1.12-0.32c2.07-0.43,3.78-1.26,5.11-2.47c1.35-1.21,2.01-2.47,2.01-3.82c0-1.01-0.36-1.82-1.1-2.43
			c-0.75-0.6-1.74-0.89-2.98-0.89c-1.88,0-3.48,0.67-4.86,2c-1.36,1.34-2.05,2.95-2.05,4.78c0,2.21,0.91,4.07,2.7,5.54
			c1.82,1.47,4.1,2.2,6.89,2.2c3.35,0,6.55-1.25,9.67-3.7c3.11-2.47,6.5-6.47,10.17-12.03c-2.01,1.41-3.89,2.48-5.62,3.23
			c-1.72,0.73-3.25,1.1-4.54,1.1c-1.59,0-2.88-0.52-3.85-1.5c-0.97-1.01-1.45-2.33-1.45-3.98v-0.59c0-0.02,0-0.06,0-0.12
			c0.04-0.18,0.05-0.36,0.05-0.49c-0.56,0.11-1.08,0.21-1.58,0.28c-0.5,0.05-0.99,0.07-1.49,0.07c-2.25,0-4.08-0.71-5.51-2.15
			c-1.43-1.44-2.15-3.3-2.15-5.58c0-1.52,0.37-3.02,1.1-4.55c0.74-1.52,1.76-2.91,3.1-4.17c1.42-1.34,3-2.42,4.74-3.18
			c1.72-0.77,3.36-1.15,4.95-1.15c0.42,0,1.14,0.08,2.1,0.22c0.06,0,0.1,0.02,0.13,0.04c-4.18,1.1-7.64,2.98-10.42,5.62
			c-2.79,2.63-4.18,5.28-4.18,7.95c0,1.78,0.56,3.24,1.67,4.35c1.12,1.11,2.57,1.68,4.35,1.68c0.49,0,1.01-0.04,1.55-0.11
			c0.52-0.08,1.14-0.19,1.82-0.37c0.4-1.92,1.25-3.9,2.52-5.91c1.27-2.02,2.96-4.07,5.04-6.17c3.5-3.48,7.12-6.23,10.83-8.24
			c2.32-1.26,4.43-2.14,6.36-2.61v1.07c-1.18,0.42-2.43,1.01-3.79,1.82c-2.74,1.66-5.74,4.09-8.97,7.29
			c-1.82,1.77-3.43,3.58-4.85,5.46c-1.43,1.88-2.71,3.92-3.85,6.14c1.55-0.71,3.24-1.69,5.05-2.91c1.82-1.24,3.71-2.71,5.69-4.43
			c0.6-0.51,1.49-1.31,2.65-2.33c3.01-2.67,5.7-4.63,8.08-5.87v0.76H87.04z"/>
		<path class="st1" d="M94.69,93.89c-0.35-0.12-0.69-0.2-1.04-0.26c-0.33-0.06-0.68-0.1-1.03-0.1c-1.41,0-2.83,0.32-4.31,0.93
			c-1.49,0.62-3,1.54-4.54,2.79c-1.43,1.11-2.51,2.26-3.27,3.44c-0.76,1.19-1.12,2.33-1.12,3.48c0,0.69,0.23,1.27,0.67,1.76
			c0.45,0.48,1,0.71,1.68,0.71c2.25,0,4.78-1.32,7.58-3.95C92.12,100.04,93.92,97.12,94.69,93.89L94.69,93.89z M65.57,109.84
			c1.55-0.71,3.24-1.69,5.05-2.91c1.82-1.24,3.71-2.71,5.69-4.43c0.6-0.51,1.49-1.31,2.65-2.33c5.61-4.99,10.13-7.48,13.55-7.48
			c0.25,0,0.54,0.03,0.87,0.06c0.31,0.06,0.81,0.16,1.49,0.3V92.3c0-1.23-0.39-2.18-1.16-2.81c-0.77-0.67-1.85-0.99-3.29-0.99
			c-2.03,0-4.42,0.83-7.17,2.46c-2.74,1.66-5.74,4.09-8.97,7.29c-1.82,1.77-3.43,3.58-4.85,5.46
			C67.99,105.58,66.71,107.62,65.57,109.84L65.57,109.84z M77.52,114.42c-2.01,1.41-3.89,2.48-5.62,3.23
			c-1.72,0.73-3.25,1.1-4.54,1.1c-1.59,0-2.88-0.52-3.85-1.5c-0.97-1.01-1.45-2.33-1.45-3.98v-0.59c0-0.02,0-0.06,0-0.12
			c0.04-0.18,0.05-0.36,0.05-0.49c-0.56,0.11-1.08,0.21-1.58,0.28c-0.5,0.05-0.99,0.07-1.49,0.07c-2.25,0-4.08-0.71-5.51-2.15
			c-1.43-1.44-2.15-3.3-2.15-5.58c0-1.52,0.37-3.02,1.1-4.55c0.74-1.52,1.76-2.91,3.1-4.17c1.42-1.34,3-2.42,4.74-3.18
			c1.72-0.77,3.36-1.15,4.95-1.15c0.42,0,1.14,0.08,2.1,0.22c0.06,0,0.1,0.02,0.13,0.04c-4.18,1.1-7.64,2.98-10.42,5.62
			c-2.79,2.63-4.18,5.28-4.18,7.95c0,1.78,0.56,3.24,1.67,4.35c1.12,1.11,2.57,1.68,4.35,1.68c0.49,0,1.01-0.04,1.55-0.11
			c0.52-0.08,1.14-0.19,1.82-0.37c0.4-1.92,1.25-3.9,2.52-5.91c1.27-2.02,2.96-4.07,5.04-6.17c3.5-3.48,7.12-6.23,10.83-8.24
			c3.71-2.02,6.92-3.04,9.65-3.04c1.84,0,3.25,0.42,4.19,1.22c0.94,0.81,1.42,1.98,1.42,3.56c0,0.05,0,0.2-0.02,0.41
			c-0.02,0.2-0.04,0.38-0.04,0.53c0.97,0.35,1.68,0.89,2.17,1.6c0.48,0.73,0.72,1.62,0.72,2.71c0,1.34-0.37,2.65-1.1,3.93
			c-0.74,1.27-1.78,2.46-3.15,3.56c-0.71,0.55-1.39,1.02-2.05,1.4c-0.67,0.38-1.1,0.55-1.26,0.55c-0.08,0-0.15-0.02-0.23-0.1
			c-0.07-0.05-0.11-0.13-0.11-0.19c0-0.2,0.33-0.51,0.99-0.95c0.44-0.32,0.81-0.57,1.06-0.79c1.59-1.17,2.79-2.37,3.58-3.62
			c0.81-1.24,1.22-2.51,1.22-3.75c0-0.79-0.16-1.45-0.45-1.96c-0.31-0.5-0.81-0.95-1.55-1.39c-0.96,3.46-2.94,6.52-5.9,9.23
			c-2.95,2.71-5.61,4.06-7.91,4.06c-1.1,0-1.99-0.3-2.63-0.87c-0.64-0.6-0.95-1.4-0.95-2.43c0-0.41,0.06-0.87,0.18-1.35
			c0.12-0.48,0.31-1.03,0.6-1.7c-2.38,2.24-4.71,4.18-7.08,5.82c-2.33,1.64-4.71,3.02-7.15,4.17c-0.27,0.58-0.48,1.11-0.62,1.61
			c-0.14,0.5-0.19,0.99-0.19,1.44c0,1.08,0.31,1.94,0.91,2.55c0.62,0.61,1.47,0.91,2.55,0.91c1.2,0,2.69-0.44,4.49-1.33
			c1.8-0.87,4.28-2.41,7.45-4.59l0.17-0.1c2.13-1.54,3.48-2.3,4.04-2.3c0.02,0,0.04,0,0.08,0.02c0.02,0.02,0.04,0.06,0.04,0.08
			c0,0.1-0.54,0.73-1.64,1.88c-1.08,1.15-2.05,2.41-2.88,3.82c-0.21,0.4-0.56,0.99-1,1.78c-2.2,3.9-4.04,6.6-5.51,8.16
			c-1.8,1.88-3.96,3.34-6.47,4.4c-2.54,1.07-5.13,1.59-7.8,1.59c-3.41,0-6.15-0.81-8.24-2.45c-2.07-1.64-3.11-3.78-3.11-6.38
			c0-2.16,0.76-3.98,2.26-5.44c1.53-1.47,3.38-2.2,5.61-2.2c1.64,0,3.01,0.45,4.11,1.38c1.12,0.91,1.66,2.06,1.66,3.42
			c0,1.6-0.65,3.03-1.97,4.25c-1.33,1.23-2.85,1.84-4.6,1.84c-0.35,0-0.71-0.04-1.1-0.1c-0.37-0.08-0.76-0.18-1.12-0.32
			c2.07-0.43,3.78-1.26,5.11-2.47c1.35-1.21,2.01-2.47,2.01-3.82c0-1.01-0.36-1.82-1.1-2.43c-0.75-0.6-1.74-0.89-2.98-0.89
			c-1.88,0-3.48,0.67-4.86,2c-1.36,1.34-2.05,2.95-2.05,4.78c0,2.21,0.91,4.07,2.7,5.54c1.82,1.47,4.1,2.2,6.89,2.2
			c3.35,0,6.55-1.25,9.67-3.7C70.47,123.97,73.85,119.98,77.52,114.42z"/>
		<path class="st1" d="M87.6,125.27c-1.78,1.88-3.32,3.27-4.62,4.14c-1.3,0.89-2.44,1.32-3.4,1.32c-0.74,0-1.33-0.22-1.76-0.65
			c-0.45-0.42-0.68-0.99-0.68-1.7c0-0.81,0.23-1.68,0.68-2.61c0.44-0.93,1.33-2.27,2.66-4.05l4.16-5.43
			c0.06-0.08,0.14-0.18,0.23-0.33c0.66-0.9,1.51-1.36,2.55-1.36c0.39,0,0.7,0.06,0.93,0.16c0.23,0.1,0.35,0.24,0.35,0.4
			c0,0.14-0.06,0.29-0.15,0.49c-0.09,0.2-0.31,0.5-0.6,0.87l-7.47,9.83c-0.32,0.41-0.58,0.85-0.77,1.3
			c-0.19,0.46-0.27,0.87-0.27,1.25c0,0.22,0.08,0.4,0.23,0.56c0.15,0.18,0.35,0.25,0.58,0.25c0.85,0,2.35-0.99,4.5-2.99
			c2.15-1.98,4.53-4.59,7.1-7.83c0.35-0.43,0.77-0.96,1.27-1.64c1.3-1.68,2.59-2.53,3.89-2.53c0.28,0,0.49,0.06,0.69,0.17
			c0.19,0.12,0.29,0.24,0.29,0.38c0,0.1-0.1,0.3-0.29,0.6c-0.21,0.29-0.56,0.77-1.06,1.4l-6.05,7.95c-0.6,0.79-1.06,1.53-1.45,2.2
			c-0.37,0.69-0.56,1.14-0.56,1.42c0,0.2,0.07,0.37,0.23,0.51c0.18,0.16,0.33,0.24,0.5,0.24c0.67,0,1.7-0.5,3.05-1.48
			c1.37-0.99,3-2.46,4.93-4.39c0.87-0.89,1.76-1.84,2.65-2.87c0.89-1.04,1.41-1.56,1.55-1.56c0.13,0,0.21,0.04,0.27,0.1
			c0.06,0.06,0.1,0.13,0.1,0.25c0,0.29-0.48,1.01-1.43,2.1c-0.95,1.09-2.23,2.4-3.86,3.94c-1.81,1.74-3.36,3-4.64,3.82
			c-1.27,0.79-2.4,1.19-3.36,1.19c-0.68,0-1.2-0.2-1.56-0.59c-0.39-0.42-0.56-0.97-0.56-1.7c0-0.43,0.08-0.89,0.25-1.36
			C86.87,126.54,87.18,125.97,87.6,125.27z"/>
		<path class="st1" d="M87.6,125.27c-1.78,1.88-3.32,3.27-4.62,4.14c-1.3,0.89-2.44,1.32-3.4,1.32c-0.74,0-1.33-0.22-1.76-0.65
			c-0.45-0.42-0.68-0.99-0.68-1.7c0-0.81,0.23-1.68,0.68-2.61c0.44-0.93,1.33-2.27,2.66-4.05l4.16-5.43
			c0.06-0.08,0.14-0.18,0.23-0.33c0.66-0.9,1.51-1.36,2.55-1.36c0.39,0,0.7,0.06,0.93,0.16c0.23,0.1,0.35,0.24,0.35,0.4
			c0,0.14-0.06,0.29-0.15,0.49c-0.09,0.2-0.31,0.5-0.6,0.87l-7.47,9.83c-0.32,0.41-0.58,0.85-0.77,1.3
			c-0.19,0.46-0.27,0.87-0.27,1.25c0,0.22,0.08,0.4,0.23,0.56c0.15,0.18,0.35,0.25,0.58,0.25c0.85,0,2.35-0.99,4.5-2.99
			c2.15-1.98,4.53-4.59,7.1-7.83c0.35-0.43,0.77-0.96,1.27-1.64c1.3-1.68,2.59-2.53,3.89-2.53c0.28,0,0.49,0.06,0.69,0.17
			c0.19,0.12,0.29,0.24,0.29,0.38c0,0.1-0.1,0.3-0.29,0.6c-0.21,0.29-0.56,0.77-1.06,1.4l-6.05,7.95c-0.6,0.79-1.06,1.53-1.45,2.2
			c-0.37,0.69-0.56,1.14-0.56,1.42c0,0.2,0.07,0.37,0.23,0.51c0.18,0.16,0.33,0.24,0.5,0.24c0.67,0,1.7-0.5,3.05-1.48
			c1.37-0.99,3-2.46,4.93-4.39c0.87-0.89,1.76-1.84,2.65-2.87c0.89-1.04,1.41-1.56,1.55-1.56c0.13,0,0.21,0.04,0.27,0.1
			c0.06,0.06,0.1,0.13,0.1,0.25c0,0.29-0.48,1.01-1.43,2.1c-0.95,1.09-2.23,2.4-3.86,3.94c-1.81,1.74-3.36,3-4.64,3.82
			c-1.27,0.79-2.4,1.19-3.36,1.19c-0.68,0-1.2-0.2-1.56-0.59c-0.39-0.42-0.56-0.97-0.56-1.7c0-0.43,0.08-0.89,0.25-1.36
			C86.87,126.54,87.18,125.97,87.6,125.27z"/>
		<path class="st1" d="M106.51,126.15c0.24-0.24,0.45-0.5,0.68-0.75c2.05-2.27,3.63-4.18,4.73-5.7s1.66-2.55,1.66-3.09
			c0-0.43-0.13-0.75-0.4-0.97s-0.66-0.33-1.18-0.33c-0.95,0-2.05,0.38-3.31,1.14c-0.7,0.44-1.43,0.97-2.19,1.63v-2.46
			c0.16-0.05,0.31-0.14,0.47-0.2c1.68-0.71,3.29-1.04,4.86-1.04c0.77,0,1.39,0.15,1.84,0.51c0.44,0.34,0.7,0.81,0.73,1.41
			c0.62-0.87,1.08-1.38,1.39-1.56c0.31-0.16,0.82-0.26,1.5-0.26c0.36,0,0.63,0.06,0.85,0.16c0.21,0.11,0.31,0.22,0.31,0.36
			c0,0.11-0.06,0.31-0.19,0.59c-0.11,0.26-0.27,0.5-0.46,0.71l-7.12,9.51c-0.42,0.59-0.78,1.15-1.03,1.66
			c-0.23,0.49-0.37,0.93-0.37,1.27c0,0.3,0.08,0.49,0.24,0.63c0.15,0.12,0.41,0.18,0.77,0.18c0.74,0,1.78-0.5,3.16-1.5
			c1.37-1.01,3.07-2.51,5.06-4.49c0.83-0.83,1.67-1.75,2.52-2.76c0.86-1.01,1.37-1.5,1.5-1.5c0.12,0,0.22,0.03,0.25,0.08
			c0.06,0.06,0.1,0.16,0.1,0.28c0,0.29-0.48,1.03-1.45,2.16c-0.99,1.13-2.25,2.41-3.81,3.89c-1.93,1.82-3.55,3.15-4.87,3.94
			c-1.32,0.81-2.46,1.21-3.46,1.21c-0.69,0-1.24-0.16-1.62-0.5c-0.38-0.33-0.58-0.81-0.58-1.44c0-0.55,0.08-1.08,0.25-1.58
			c0.16-0.5,0.38-0.98,0.69-1.44c-0.52,0.56-1.02,1.05-1.51,1.51v-1.26H106.51z M100.83,129.9c0.67,0,1.6-0.4,2.76-1.2
			c0.95-0.66,1.91-1.5,2.92-2.55v1.23c-0.98,0.95-1.91,1.68-2.76,2.23c-1.25,0.83-2.4,1.23-3.4,1.23c-1.01,0-1.78-0.32-2.34-0.97
			c-0.56-0.66-0.85-1.53-0.85-2.65c0-1.31,0.47-2.77,1.37-4.37c0.91-1.6,2.14-3.09,3.71-4.45c1.36-1.15,2.77-2.08,4.27-2.77v2.46
			c-0.58,0.49-1.16,1.04-1.75,1.66c-1.69,1.78-3,3.44-3.93,4.97c-0.93,1.5-1.4,2.75-1.4,3.72c0,0.47,0.14,0.85,0.37,1.1
			C100.03,129.76,100.38,129.9,100.83,129.9z"/>
		<path class="st1" d="M100.83,129.9c0.67,0,1.6-0.4,2.76-1.2c1.16-0.82,2.36-1.9,3.6-3.3c2.05-2.27,3.63-4.18,4.73-5.7
			s1.66-2.55,1.66-3.09c0-0.43-0.13-0.75-0.4-0.97s-0.66-0.33-1.18-0.33c-0.95,0-2.05,0.38-3.31,1.14
			c-1.24,0.78-2.55,1.86-3.94,3.29c-1.69,1.78-3,3.44-3.93,4.97c-0.93,1.5-1.4,2.75-1.4,3.72c0,0.47,0.14,0.85,0.37,1.1
			C100.03,129.76,100.38,129.9,100.83,129.9L100.83,129.9z M108.02,125.87c-1.58,1.68-3.01,2.92-4.27,3.74
			c-1.25,0.83-2.4,1.23-3.4,1.23c-1.01,0-1.78-0.32-2.34-0.97c-0.56-0.66-0.85-1.53-0.85-2.65c0-1.31,0.47-2.77,1.37-4.37
			c0.91-1.6,2.14-3.09,3.71-4.45c1.49-1.27,3.07-2.26,4.74-2.97c1.68-0.71,3.29-1.04,4.86-1.04c0.77,0,1.39,0.15,1.84,0.51
			c0.44,0.34,0.7,0.81,0.73,1.41c0.62-0.87,1.08-1.38,1.39-1.56c0.31-0.16,0.82-0.26,1.5-0.26c0.36,0,0.63,0.06,0.85,0.16
			c0.21,0.11,0.31,0.22,0.31,0.36c0,0.11-0.06,0.31-0.19,0.59c-0.11,0.26-0.27,0.5-0.46,0.71l-7.12,9.51
			c-0.42,0.59-0.78,1.15-1.03,1.66c-0.23,0.49-0.37,0.93-0.37,1.27c0,0.3,0.08,0.49,0.24,0.63c0.15,0.12,0.41,0.18,0.77,0.18
			c0.74,0,1.78-0.5,3.16-1.5c1.37-1.01,3.07-2.51,5.06-4.49c0.83-0.83,1.67-1.75,2.52-2.76c0.86-1.01,1.37-1.5,1.5-1.5
			c0.12,0,0.22,0.03,0.25,0.08c0.06,0.06,0.1,0.16,0.1,0.28c0,0.29-0.48,1.03-1.45,2.16c-0.99,1.13-2.25,2.41-3.81,3.89
			c-1.93,1.82-3.55,3.15-4.87,3.94c-1.32,0.81-2.46,1.21-3.46,1.21c-0.69,0-1.24-0.16-1.62-0.5c-0.38-0.33-0.58-0.81-0.58-1.44
			c0-0.55,0.08-1.08,0.25-1.58C107.48,126.82,107.71,126.33,108.02,125.87z"/>
		<path class="st1" d="M127.03,125.97c0.56-0.57,1.16-1.19,1.79-1.88c1.82-1.96,3.11-3.52,3.89-4.67c0.77-1.12,1.17-2.04,1.17-2.71
			c0-0.38-0.16-0.67-0.46-0.91c-0.31-0.22-0.71-0.33-1.2-0.33c-0.72,0-1.62,0.37-2.71,1.13c-0.73,0.49-1.57,1.18-2.49,2.03v-2.75
			c0.09-0.06,0.19-0.1,0.29-0.16c1.68-0.79,3.29-1.19,4.86-1.19c0.89,0,1.58,0.21,2.09,0.6c0.49,0.39,0.72,0.97,0.72,1.68
			l11.23-15.27c0.39-0.51,0.72-0.87,0.99-1.02c0.27-0.18,0.58-0.28,0.92-0.28h1.4c0.19,0.02,0.35,0.08,0.44,0.14
			c0.09,0.08,0.14,0.18,0.14,0.3c0,0.34-0.19,0.73-0.58,1.19l-0.06,0.06l-17.84,23.75c-0.56,0.76-0.97,1.36-1.2,1.8
			c-0.23,0.46-0.35,0.83-0.35,1.15c0,0.33,0.05,0.59,0.21,0.73c0.14,0.14,0.37,0.22,0.72,0.22c0.79,0,1.87-0.49,3.25-1.49
			c1.4-0.98,3.08-2.49,5.07-4.48c0.85-0.85,1.7-1.78,2.57-2.79s1.38-1.5,1.49-1.5c0.12,0,0.19,0.02,0.25,0.08s0.1,0.15,0.1,0.25
			c0,0.29-0.35,0.85-1.04,1.68c-0.7,0.84-1.84,2.04-3.43,3.64c-1.96,2-3.62,3.44-5.01,4.37s-2.58,1.39-3.58,1.39
			c-0.91,0-1.62-0.26-2.13-0.77c-0.52-0.51-0.77-1.2-0.77-2.12c0-0.16,0.02-0.36,0.06-0.55c0.02-0.21,0.08-0.56,0.17-0.99
			c-0.33,0.34-0.67,0.65-0.98,0.97L127.03,125.97L127.03,125.97z M121.6,129.5c0.74,0,1.7-0.45,2.94-1.36
			c0.74-0.57,1.59-1.29,2.5-2.17v1.29c-1.13,1.04-2.17,1.86-3.13,2.45c-1.24,0.75-2.35,1.13-3.33,1.13c-0.93,0-1.66-0.28-2.17-0.83
			c-0.5-0.55-0.75-1.36-0.75-2.39c0-1.21,0.41-2.53,1.26-4c0.85-1.46,2.04-2.95,3.63-4.47c1.43-1.38,2.92-2.47,4.49-3.26v2.75
			c-0.47,0.42-0.94,0.87-1.43,1.36c-1.72,1.77-3.05,3.37-4,4.75c-0.97,1.41-1.43,2.52-1.43,3.31c0,0.5,0.11,0.87,0.35,1.11
			C120.74,129.39,121.11,129.5,121.6,129.5z"/>
		<path class="st1" d="M121.6,129.5c0.74,0,1.7-0.45,2.94-1.36c1.21-0.91,2.65-2.27,4.29-4.05c1.82-1.96,3.11-3.52,3.89-4.67
			c0.77-1.12,1.17-2.04,1.17-2.71c0-0.38-0.16-0.67-0.46-0.91c-0.31-0.22-0.71-0.33-1.2-0.33c-0.72,0-1.62,0.37-2.71,1.13
			c-1.1,0.75-2.4,1.87-3.93,3.39c-1.72,1.77-3.05,3.37-4,4.75c-0.97,1.41-1.43,2.52-1.43,3.31c0,0.5,0.11,0.87,0.35,1.11
			C120.74,129.39,121.11,129.5,121.6,129.5L121.6,129.5z M128.01,126.28c-1.51,1.53-2.87,2.67-4.11,3.42s-2.35,1.13-3.33,1.13
			c-0.93,0-1.66-0.28-2.17-0.83c-0.5-0.55-0.75-1.36-0.75-2.39c0-1.21,0.41-2.53,1.26-4c0.85-1.46,2.04-2.95,3.63-4.47
			c1.51-1.48,3.11-2.61,4.77-3.42c1.68-0.79,3.29-1.19,4.86-1.19c0.89,0,1.58,0.21,2.09,0.6c0.49,0.39,0.72,0.97,0.72,1.68
			l11.23-15.27c0.39-0.51,0.72-0.87,0.99-1.02c0.27-0.18,0.58-0.28,0.92-0.28h1.4c0.19,0.02,0.35,0.08,0.44,0.14
			c0.09,0.08,0.14,0.18,0.14,0.3c0,0.34-0.19,0.73-0.58,1.19l-0.06,0.06l-17.84,23.75c-0.56,0.76-0.97,1.36-1.2,1.8
			c-0.23,0.46-0.35,0.83-0.35,1.15c0,0.33,0.05,0.59,0.21,0.73c0.14,0.14,0.37,0.22,0.72,0.22c0.79,0,1.87-0.49,3.25-1.49
			c1.4-0.98,3.08-2.49,5.07-4.48c0.85-0.85,1.7-1.78,2.57-2.79s1.38-1.5,1.49-1.5c0.12,0,0.19,0.02,0.25,0.08s0.1,0.15,0.1,0.25
			c0,0.29-0.35,0.85-1.04,1.68c-0.7,0.84-1.84,2.04-3.43,3.64c-1.96,2-3.62,3.44-5.01,4.37s-2.58,1.39-3.58,1.39
			c-0.91,0-1.62-0.26-2.13-0.77c-0.52-0.51-0.77-1.2-0.77-2.12c0-0.16,0.02-0.36,0.06-0.55
			C127.86,127.06,127.92,126.72,128.01,126.28z"/>
		<path class="st1" d="M148.38,126.15c0.24-0.24,0.47-0.5,0.68-0.75c2.07-2.27,3.63-4.18,4.74-5.7c1.1-1.52,1.67-2.55,1.67-3.09
			c0-0.43-0.14-0.75-0.41-0.97c-0.26-0.22-0.66-0.33-1.18-0.33c-0.94,0-2.03,0.38-3.29,1.14c-0.71,0.44-1.44,0.97-2.2,1.63v-2.46
			c0.15-0.05,0.31-0.14,0.47-0.2c1.68-0.71,3.3-1.04,4.85-1.04c0.77,0,1.39,0.15,1.84,0.51c0.46,0.34,0.7,0.81,0.73,1.41
			c0.62-0.87,1.11-1.38,1.42-1.56c0.31-0.16,0.8-0.26,1.47-0.26c0.37,0,0.64,0.06,0.85,0.16c0.21,0.11,0.31,0.22,0.31,0.36
			c0,0.11-0.05,0.31-0.17,0.59c-0.13,0.26-0.28,0.5-0.47,0.71l-7.13,9.51c-0.42,0.59-0.77,1.15-1.01,1.66
			c-0.24,0.49-0.36,0.93-0.36,1.27c0,0.3,0.08,0.49,0.22,0.63c0.14,0.12,0.4,0.18,0.77,0.18c0.73,0,1.78-0.5,3.17-1.5
			c1.38-1.01,3.05-2.51,5.05-4.49c0.83-0.83,1.66-1.75,2.53-2.76c0.85-1.01,1.35-1.5,1.5-1.5c0.1,0,0.2,0.03,0.26,0.08
			c0.06,0.06,0.08,0.16,0.08,0.28c0,0.29-0.49,1.03-1.45,2.16c-0.96,1.13-2.24,2.41-3.81,3.89c-1.93,1.82-3.56,3.15-4.87,3.94
			c-1.3,0.81-2.46,1.21-3.47,1.21c-0.69,0-1.23-0.16-1.62-0.5c-0.39-0.33-0.58-0.81-0.58-1.44c0-0.55,0.1-1.08,0.25-1.58
			c0.16-0.5,0.39-0.98,0.7-1.44c-0.52,0.56-1.03,1.05-1.51,1.51v-1.26H148.38z M142.72,129.9c0.67,0,1.59-0.4,2.75-1.2
			c0.95-0.66,1.92-1.5,2.92-2.55v1.23c-0.98,0.95-1.92,1.68-2.75,2.23c-1.28,0.83-2.38,1.23-3.4,1.23c-0.99,0-1.78-0.32-2.34-0.97
			c-0.56-0.66-0.85-1.53-0.85-2.65c0-1.31,0.47-2.77,1.37-4.37c0.91-1.6,2.15-3.09,3.7-4.45c1.35-1.15,2.78-2.08,4.27-2.77v2.46
			c-0.56,0.49-1.14,1.04-1.74,1.66c-1.7,1.78-3.02,3.44-3.92,4.97c-0.91,1.5-1.38,2.75-1.38,3.72c0,0.47,0.12,0.85,0.35,1.1
			C141.92,129.76,142.27,129.9,142.72,129.9z"/>
		<path class="st1" d="M142.72,129.9c0.67,0,1.59-0.4,2.75-1.2c1.16-0.82,2.36-1.9,3.6-3.3c2.07-2.27,3.63-4.18,4.74-5.7
			c1.1-1.52,1.67-2.55,1.67-3.09c0-0.43-0.14-0.75-0.41-0.97c-0.26-0.22-0.66-0.33-1.18-0.33c-0.94,0-2.03,0.38-3.29,1.14
			c-1.25,0.78-2.56,1.86-3.94,3.29c-1.7,1.78-3.02,3.44-3.92,4.97c-0.91,1.5-1.38,2.75-1.38,3.72c0,0.47,0.12,0.85,0.35,1.1
			C141.92,129.76,142.27,129.9,142.72,129.9L142.72,129.9z M149.89,125.87c-1.58,1.68-3,2.92-4.26,3.74
			c-1.28,0.83-2.38,1.23-3.4,1.23c-0.99,0-1.78-0.32-2.34-0.97c-0.56-0.66-0.85-1.53-0.85-2.65c0-1.31,0.47-2.77,1.37-4.37
			c0.91-1.6,2.15-3.09,3.7-4.45c1.48-1.27,3.07-2.26,4.74-2.97c1.68-0.71,3.3-1.04,4.85-1.04c0.77,0,1.39,0.15,1.84,0.51
			c0.46,0.34,0.7,0.81,0.73,1.41c0.62-0.87,1.11-1.38,1.42-1.56c0.31-0.16,0.8-0.26,1.47-0.26c0.37,0,0.64,0.06,0.85,0.16
			c0.21,0.11,0.31,0.22,0.31,0.36c0,0.11-0.05,0.31-0.17,0.59c-0.13,0.26-0.28,0.5-0.47,0.71l-7.13,9.51
			c-0.42,0.59-0.77,1.15-1.01,1.66c-0.24,0.49-0.36,0.93-0.36,1.27c0,0.3,0.08,0.49,0.22,0.63c0.14,0.12,0.4,0.18,0.77,0.18
			c0.73,0,1.78-0.5,3.17-1.5c1.38-1.01,3.05-2.51,5.05-4.49c0.83-0.83,1.66-1.75,2.53-2.76c0.85-1.01,1.35-1.5,1.5-1.5
			c0.1,0,0.2,0.03,0.26,0.08c0.06,0.06,0.08,0.16,0.08,0.28c0,0.29-0.49,1.03-1.45,2.16c-0.96,1.13-2.24,2.41-3.81,3.89
			c-1.93,1.82-3.56,3.15-4.87,3.94c-1.3,0.81-2.46,1.21-3.47,1.21c-0.69,0-1.23-0.16-1.62-0.5c-0.39-0.33-0.58-0.81-0.58-1.44
			c0-0.55,0.1-1.08,0.25-1.58C149.35,126.82,149.58,126.33,149.89,125.87z"/>
		<path class="st1" d="M181.03,107.46c1.41-1.07,2.72-2.18,3.94-3.35c3.58-3.44,5.37-6.03,5.37-7.81c0-0.4-0.09-0.67-0.27-0.85
			c-0.18-0.18-0.46-0.28-0.89-0.28c-1.33,0-3.58,1.62-6.77,4.85c-0.44,0.48-0.91,0.97-1.39,1.48v-2.05
			c0.56-0.49,1.12-0.95,1.66-1.41c3.15-2.59,5.49-3.87,6.96-3.87c0.5,0,0.91,0.16,1.18,0.48c0.29,0.31,0.42,0.75,0.42,1.31
			c0,2.41-1.89,5.42-5.7,9c-1.36,1.28-2.89,2.53-4.53,3.71v-1.21H181.03z M171.72,113.11c3.47-1.68,6.56-3.58,9.31-5.65v1.21
			c-2.92,2.12-6.29,4.07-10.08,5.87c-2.65,3.44-4.77,6.47-6.36,9.06c-1.6,2.61-2.4,4.33-2.4,5.14c0,0.4,0.11,0.67,0.32,0.87
			c0.23,0.2,0.55,0.3,1.02,0.3c0.95,0,2.24-0.6,3.88-1.76c1.65-1.15,3.56-2.85,5.75-5.08c0.69-0.71,1.42-1.53,2.16-2.41
			c0.76-0.88,1.2-1.32,1.36-1.32c0.11,0,0.19,0.04,0.25,0.1c0.06,0.04,0.09,0.14,0.09,0.25c0,0.3-0.48,1.01-1.43,2.12
			c-0.94,1.13-2.2,2.41-3.77,3.89c-2.04,1.94-3.77,3.3-5.1,4.11c-1.34,0.79-2.57,1.19-3.72,1.19c-0.95,0-1.68-0.24-2.19-0.71
			c-0.5-0.48-0.75-1.15-0.75-2.06c0-1.8,1.01-4.3,3.01-7.54c2.01-3.22,5.14-7.34,9.36-12.32c3.04-3.56,5.9-6.53,8.59-8.91v2.05
			C178.22,104.55,175.11,108.41,171.72,113.11z"/>
		<path class="st1" d="M171.72,113.11c5.25-2.55,9.65-5.55,13.25-9c3.58-3.44,5.37-6.03,5.37-7.81c0-0.4-0.09-0.67-0.27-0.85
			c-0.18-0.18-0.46-0.28-0.89-0.28c-1.33,0-3.58,1.62-6.77,4.85C179.25,103.26,175.69,107.64,171.72,113.11L171.72,113.11z
			 M170.95,114.53c-2.65,3.44-4.77,6.47-6.36,9.06c-1.6,2.61-2.4,4.33-2.4,5.14c0,0.4,0.11,0.67,0.32,0.87
			c0.23,0.2,0.55,0.3,1.02,0.3c0.95,0,2.24-0.6,3.88-1.76c1.65-1.15,3.56-2.85,5.75-5.08c0.69-0.71,1.42-1.53,2.16-2.41
			c0.76-0.88,1.2-1.32,1.36-1.32c0.11,0,0.19,0.04,0.25,0.1c0.06,0.04,0.09,0.14,0.09,0.25c0,0.3-0.48,1.01-1.43,2.12
			c-0.94,1.13-2.2,2.41-3.77,3.89c-2.04,1.94-3.77,3.3-5.1,4.11c-1.34,0.79-2.57,1.19-3.72,1.19c-0.95,0-1.68-0.24-2.19-0.71
			c-0.5-0.48-0.75-1.15-0.75-2.06c0-1.8,1.01-4.3,3.01-7.54c2.01-3.22,5.14-7.34,9.36-12.32c3.68-4.29,7.08-7.73,10.25-10.32
			c3.15-2.59,5.49-3.87,6.96-3.87c0.5,0,0.91,0.16,1.18,0.48c0.29,0.31,0.42,0.75,0.42,1.31c0,2.41-1.89,5.42-5.7,9
			C181.76,108.53,176.89,111.73,170.95,114.53z"/>
		<path class="st1" d="M181.72,125.27c-1.79,1.88-3.33,3.27-4.62,4.14c-1.3,0.89-2.43,1.32-3.43,1.32c-0.73,0-1.31-0.22-1.75-0.65
			c-0.45-0.42-0.66-0.99-0.66-1.7c0-0.81,0.23-1.68,0.67-2.61c0.45-0.93,1.34-2.27,2.66-4.05l4.17-5.43
			c0.04-0.08,0.12-0.18,0.21-0.33c0.66-0.9,1.51-1.36,2.57-1.36c0.37,0,0.67,0.06,0.91,0.16s0.37,0.24,0.37,0.4
			c0,0.14-0.06,0.29-0.16,0.49c-0.11,0.2-0.31,0.5-0.62,0.87l-7.46,9.83c-0.31,0.41-0.56,0.85-0.76,1.3
			c-0.19,0.46-0.29,0.87-0.29,1.25c0,0.22,0.07,0.4,0.25,0.56c0.16,0.18,0.35,0.25,0.58,0.25c0.84,0,2.34-0.99,4.49-2.99
			c2.17-1.98,4.53-4.59,7.12-7.83c0.32-0.43,0.75-0.96,1.26-1.64c1.31-1.68,2.6-2.53,3.9-2.53c0.25,0,0.49,0.06,0.68,0.17
			c0.21,0.12,0.3,0.24,0.3,0.38c0,0.1-0.1,0.3-0.3,0.6c-0.19,0.29-0.54,0.77-1.05,1.4l-6.07,7.95c-0.58,0.79-1.06,1.53-1.43,2.2
			c-0.39,0.69-0.56,1.14-0.56,1.42c0,0.2,0.08,0.37,0.24,0.51c0.15,0.16,0.32,0.24,0.5,0.24c0.68,0,1.68-0.5,3.05-1.48
			c1.36-0.99,3-2.46,4.91-4.39c0.89-0.89,1.78-1.84,2.67-2.87c0.89-1.04,1.41-1.56,1.52-1.56c0.14,0,0.24,0.04,0.3,0.1
			c0.05,0.06,0.08,0.13,0.08,0.25c0,0.29-0.47,1.01-1.41,2.1c-0.95,1.09-2.25,2.4-3.84,3.94c-1.83,1.74-3.39,3-4.67,3.82
			c-1.28,0.79-2.37,1.19-3.35,1.19c-0.67,0-1.2-0.2-1.58-0.59c-0.37-0.42-0.56-0.97-0.56-1.7c0-0.43,0.09-0.89,0.25-1.36
			C180.98,126.54,181.3,125.97,181.72,125.27z"/>
		<path class="st1" d="M181.72,125.27c-1.79,1.88-3.33,3.27-4.62,4.14c-1.3,0.89-2.43,1.32-3.43,1.32c-0.73,0-1.31-0.22-1.75-0.65
			c-0.45-0.42-0.66-0.99-0.66-1.7c0-0.81,0.23-1.68,0.67-2.61c0.45-0.93,1.34-2.27,2.66-4.05l4.17-5.43
			c0.04-0.08,0.12-0.18,0.21-0.33c0.66-0.9,1.51-1.36,2.57-1.36c0.37,0,0.67,0.06,0.91,0.16s0.37,0.24,0.37,0.4
			c0,0.14-0.06,0.29-0.16,0.49c-0.11,0.2-0.31,0.5-0.62,0.87l-7.46,9.83c-0.31,0.41-0.56,0.85-0.76,1.3
			c-0.19,0.46-0.29,0.87-0.29,1.25c0,0.22,0.07,0.4,0.25,0.56c0.16,0.18,0.35,0.25,0.58,0.25c0.84,0,2.34-0.99,4.49-2.99
			c2.17-1.98,4.53-4.59,7.12-7.83c0.32-0.43,0.75-0.96,1.26-1.64c1.31-1.68,2.6-2.53,3.9-2.53c0.25,0,0.49,0.06,0.68,0.17
			c0.21,0.12,0.3,0.24,0.3,0.38c0,0.1-0.1,0.3-0.3,0.6c-0.19,0.29-0.54,0.77-1.05,1.4l-6.07,7.95c-0.58,0.79-1.06,1.53-1.43,2.2
			c-0.39,0.69-0.56,1.14-0.56,1.42c0,0.2,0.08,0.37,0.24,0.51c0.15,0.16,0.32,0.24,0.5,0.24c0.68,0,1.68-0.5,3.05-1.48
			c1.36-0.99,3-2.46,4.91-4.39c0.89-0.89,1.78-1.84,2.67-2.87c0.89-1.04,1.41-1.56,1.52-1.56c0.14,0,0.24,0.04,0.3,0.1
			c0.05,0.06,0.08,0.13,0.08,0.25c0,0.29-0.47,1.01-1.41,2.1c-0.95,1.09-2.25,2.4-3.84,3.94c-1.83,1.74-3.39,3-4.67,3.82
			c-1.28,0.79-2.37,1.19-3.35,1.19c-0.67,0-1.2-0.2-1.58-0.59c-0.37-0.42-0.56-0.97-0.56-1.7c0-0.43,0.09-0.89,0.25-1.36
			C180.98,126.54,181.3,125.97,181.72,125.27z"/>
		<path class="st1" d="M183.13,140.29c-0.11,0.16-0.25,0.35-0.42,0.58c-0.96,1.32-2.14,1.99-3.52,1.99c-0.23,0-0.42-0.06-0.58-0.16
			c-0.15-0.07-0.23-0.19-0.23-0.3c0-0.4,0.58-1.35,1.76-2.85c0.37-0.5,0.64-0.85,0.85-1.13l24.19-32.07c0.1-0.14,0.22-0.3,0.37-0.5
			c1.01-1.37,2.18-2.04,3.54-2.04c0.23,0,0.42,0.04,0.58,0.14c0.15,0.1,0.23,0.22,0.23,0.34c0,0.2-0.18,0.59-0.56,1.17
			c-0.37,0.57-1.05,1.5-2.03,2.78l-9.65,12.49c2.84-2.48,4.93-4.13,6.26-4.99c1.34-0.86,2.42-1.28,3.27-1.28
			c0.62,0,1.1,0.17,1.47,0.55s0.54,0.89,0.54,1.53c0,1.14-1.07,3.18-3.19,6.09l-0.1,0.11l-0.62,0.83c-1.98,2.67-2.96,4.27-2.96,4.81
			c0,0.41,0.08,0.69,0.23,0.87c0.16,0.18,0.41,0.25,0.75,0.25c0.7,0,1.75-0.49,3.12-1.5c1.4-0.98,3.04-2.43,4.91-4.29
			c0.85-0.87,1.74-1.82,2.65-2.85c0.89-1.05,1.41-1.56,1.55-1.56c0.11,0,0.19,0.02,0.23,0.08c0.04,0.04,0.06,0.13,0.06,0.27
			c0,0.32-0.47,1.03-1.37,2.1c-0.91,1.07-2.18,2.38-3.84,3.93c-1.77,1.74-3.36,3.03-4.71,3.88c-1.38,0.84-2.53,1.27-3.49,1.27
			c-0.77,0-1.39-0.24-1.86-0.69c-0.44-0.45-0.67-1.07-0.67-1.85c0-0.7,0.25-1.57,0.79-2.58c0.55-0.98,1.61-2.53,3.18-4.59
			c0.85-1.13,1.55-2.11,2.05-2.93c0.52-0.81,0.77-1.34,0.77-1.6c0-0.21-0.08-0.36-0.19-0.48c-0.13-0.12-0.31-0.18-0.52-0.18
			c-0.93,0-2.89,1.27-5.82,3.8c-2.94,2.53-5.69,5.52-8.23,8.96L183.13,140.29z"/>
		<path class="st1" d="M183.13,140.29c-0.11,0.16-0.25,0.35-0.42,0.58c-0.96,1.32-2.14,1.99-3.52,1.99c-0.23,0-0.42-0.06-0.58-0.16
			c-0.15-0.07-0.23-0.19-0.23-0.3c0-0.4,0.58-1.35,1.76-2.85c0.37-0.5,0.64-0.85,0.85-1.13l24.19-32.07c0.1-0.14,0.22-0.3,0.37-0.5
			c1.01-1.37,2.18-2.04,3.54-2.04c0.23,0,0.42,0.04,0.58,0.14c0.15,0.1,0.23,0.22,0.23,0.34c0,0.2-0.18,0.59-0.56,1.17
			c-0.37,0.57-1.05,1.5-2.03,2.78l-9.65,12.49c2.84-2.48,4.93-4.13,6.26-4.99c1.34-0.86,2.42-1.28,3.27-1.28
			c0.62,0,1.1,0.17,1.47,0.55s0.54,0.89,0.54,1.53c0,1.14-1.07,3.18-3.19,6.09l-0.1,0.11l-0.62,0.83c-1.98,2.67-2.96,4.27-2.96,4.81
			c0,0.41,0.08,0.69,0.23,0.87c0.16,0.18,0.41,0.25,0.75,0.25c0.7,0,1.75-0.49,3.12-1.5c1.4-0.98,3.04-2.43,4.91-4.29
			c0.85-0.87,1.74-1.82,2.65-2.85c0.89-1.05,1.41-1.56,1.55-1.56c0.11,0,0.19,0.02,0.23,0.08c0.04,0.04,0.06,0.13,0.06,0.27
			c0,0.32-0.47,1.03-1.37,2.1c-0.91,1.07-2.18,2.38-3.84,3.93c-1.77,1.74-3.36,3.03-4.71,3.88c-1.38,0.84-2.53,1.27-3.49,1.27
			c-0.77,0-1.39-0.24-1.86-0.69c-0.44-0.45-0.67-1.07-0.67-1.85c0-0.7,0.25-1.57,0.79-2.58c0.55-0.98,1.61-2.53,3.18-4.59
			c0.85-1.13,1.55-2.11,2.05-2.93c0.52-0.81,0.77-1.34,0.77-1.6c0-0.21-0.08-0.36-0.19-0.48c-0.13-0.12-0.31-0.18-0.52-0.18
			c-0.93,0-2.89,1.27-5.82,3.8c-2.94,2.53-5.69,5.52-8.23,8.96L183.13,140.29z"/>
		<path class="st1" d="M220.26,121.6c0.75-0.44,1.43-0.91,2.05-1.4c1.7-1.37,2.57-2.67,2.57-3.87c0-0.25-0.12-0.48-0.31-0.66
			c-0.21-0.18-0.47-0.27-0.74-0.27c-0.75,0-1.89,0.77-3.46,2.29l-0.12,0.12v-2.36c0.29-0.14,0.58-0.27,0.84-0.39
			c1.11-0.46,2.08-0.67,2.91-0.67c0.64,0,1.14,0.15,1.49,0.47c0.35,0.31,0.52,0.77,0.52,1.34c0,1.48-0.98,3.02-2.96,4.64
			c-0.83,0.68-1.76,1.29-2.8,1.86L220.26,121.6L220.26,121.6z M220.26,129.53c0.27-0.14,0.56-0.32,0.84-0.49
			c1.96-1.19,4.08-2.89,6.33-5.13c1.14-1.15,2.07-2.14,2.76-2.96c0.7-0.84,1.05-1.35,1.05-1.55c0-0.14-0.02-0.22-0.06-0.28
			c-0.04-0.04-0.1-0.06-0.18-0.06c-0.29,0-0.85,0.5-1.7,1.51c-0.87,1.01-1.68,1.87-2.48,2.63c-2.2,2.13-4.18,3.78-5.98,4.93
			c-0.19,0.11-0.41,0.23-0.6,0.35v1.05H220.26z M215.66,123.6c1.74-0.55,3.28-1.23,4.61-2v1.11c-1.45,0.81-3.12,1.52-5.01,2.14
			c-0.27,0.56-0.46,1.05-0.58,1.54c-0.12,0.47-0.18,0.97-0.18,1.44c0,0.62,0.18,1.11,0.53,1.47c0.34,0.35,0.83,0.53,1.45,0.53
			c1.02,0,2.28-0.46,3.79-1.35v1.05c-1.61,0.87-2.98,1.31-4.16,1.31c-1.22,0-2.18-0.42-2.9-1.25c-0.71-0.85-1.06-2-1.06-3.44
			c0-1.53,0.5-3.09,1.51-4.71c1.01-1.62,2.4-3.1,4.21-4.47c0.79-0.61,1.6-1.1,2.4-1.52v2.36
			C218.75,119.32,217.21,121.24,215.66,123.6z"/>
		<path class="st1" d="M215.66,123.6c2.71-0.87,4.93-2.02,6.66-3.4c1.7-1.37,2.57-2.67,2.57-3.87c0-0.25-0.12-0.48-0.31-0.66
			c-0.21-0.18-0.47-0.27-0.74-0.27c-0.75,0-1.89,0.77-3.46,2.29C218.84,119.22,217.25,121.2,215.66,123.6L215.66,123.6z
			 M215.25,124.84c-0.27,0.56-0.46,1.05-0.58,1.54c-0.12,0.47-0.18,0.97-0.18,1.44c0,0.62,0.18,1.11,0.53,1.47
			c0.34,0.35,0.83,0.53,1.45,0.53c1.14,0,2.6-0.58,4.38-1.7c1.8-1.15,3.77-2.79,5.98-4.93c0.79-0.75,1.6-1.62,2.48-2.63
			c0.85-1.01,1.41-1.51,1.7-1.51c0.08,0,0.14,0.03,0.18,0.06c0.04,0.06,0.06,0.14,0.06,0.28c0,0.2-0.35,0.71-1.05,1.55
			c-0.69,0.83-1.62,1.82-2.76,2.96c-2.26,2.24-4.37,3.93-6.33,5.13c-1.97,1.2-3.63,1.8-5,1.8c-1.22,0-2.18-0.42-2.9-1.25
			c-0.71-0.85-1.06-2-1.06-3.44c0-1.53,0.5-3.09,1.51-4.71c1.01-1.62,2.4-3.1,4.21-4.47c1.09-0.83,2.17-1.46,3.24-1.91
			c1.11-0.46,2.08-0.67,2.91-0.67c0.64,0,1.14,0.15,1.49,0.47c0.35,0.31,0.52,0.77,0.52,1.34c0,1.48-0.98,3.02-2.96,4.64
			C221.09,122.45,218.5,123.79,215.25,124.84z"/>
		<g>
			<path class="st2" d="M58.41,59.39c-1.39,1.41-2.89,2.71-3.98,4.39c-0.96,1.5-1.79,3.18-2.12,4.97c-0.67,3.61-0.72,7.3-0.52,10.97
				c0.39,7.18,1.06,14.28,0.87,21.46c-0.02,1.24-0.46,2.47-0.41,3.72c0.08,1.95,0.78,3.92,2.13,5.3c0.58,0.61,1.36,0.97,2.07,1.4
				l0,0c-0.71-0.4-1.51-0.76-2.11-1.36c-1.39-1.38-2.13-3.36-2.24-5.33c-0.08-1.27,0.35-2.51,0.35-3.78
				c0.03-7.14-0.8-14.22-1.14-21.36c-0.18-3.71,0.06-7.43,0.81-11.07c0.38-1.78,1.24-3.46,2.24-4.97
				C55.46,62.06,57,60.77,58.41,59.39z"/>
		</g>
		<g>
			<g>
				<path class="st3" d="M71.03,55.31c-0.45-1.13-0.89-2.23-1.18-3.4c-0.31-1.23-0.48-2.49-0.81-3.7c-0.15-0.58-0.34-1.13-0.62-1.64
					c-0.27-0.5-0.58-0.97-0.97-1.32l-0.66-0.51L66,44.34l-0.95-0.25l-1.13-0.1l-1.2,0.16l-1.06,0.26l-0.92,0.37
					c-0.5,0.24-0.94,0.61-1.35,1.01c-0.39,0.39-0.73,0.81-0.95,1.31c-0.35,0.81-0.54,1.72-0.54,2.63l0.22,2.18l0.62,2.43l1.02,2.69
					l0,0l0.64,1.72l0.41,2l0.21,1.12l-0.28-1.11c-0.3-1.24-0.65-2.47-1.1-3.67c-0.31-0.91-0.79-1.76-1.08-2.67
					c-0.49-1.52-0.89-3.08-0.97-4.69c-0.04-0.95,0.15-1.92,0.48-2.81c0.19-0.56,0.52-1.09,0.93-1.51c0.44-0.45,1-0.75,1.59-1.01
					c0.66-0.3,1.37-0.45,2.07-0.57c0.42-0.08,0.83-0.16,1.26-0.12c0.73,0.06,1.47,0.16,2.15,0.41c0.56,0.21,1.06,0.57,1.49,0.99
					c0.4,0.39,0.71,0.87,0.99,1.39c0.25,0.53,0.46,1.11,0.6,1.68c0.31,1.23,0.46,2.49,0.75,3.72C70.18,53.06,70.6,54.19,71.03,55.31
					L71.03,55.31z M61.03,61.86l0.16,0.95l0.52,1.9L61.03,61.86L61.03,61.86z M61.7,64.7l0.02,0.08l0,0L61.7,64.7z"/>
				<path class="st3" d="M71.64,56.28c-0.44-1.12-1.51-3.2-1.8-4.37c-0.31-1.23-0.48-2.49-0.81-3.7c-0.15-0.58-0.34-1.13-0.62-1.64
					c-0.27-0.5-0.58-0.97-0.97-1.32l-0.66-0.51l-0.79-0.4l-0.95-0.25l-1.13-0.1l-1.2,0.16l-1.06,0.26l-0.92,0.37
					c-0.5,0.24-0.94,0.61-1.35,1.01c-0.39,0.39-0.73,0.81-0.95,1.31c-0.35,0.81-0.54,1.72-0.54,2.63l0.22,2.18l0.62,2.43l1.02,2.69
					l0,0l0.64,1.72l0.41,2l0.21,1.12l-0.28-1.11c-0.3-1.24-0.65-2.47-1.1-3.67c-0.31-0.91-0.79-1.76-1.08-2.67
					c-0.49-1.52-0.89-3.08-0.97-4.69c-0.04-0.95,0.15-1.92,0.48-2.81c0.19-0.56,0.52-1.09,0.93-1.51c0.44-0.45,1-0.75,1.59-1.01
					c0.66-0.3,1.37-0.45,2.07-0.57c0.42-0.08,0.83-0.16,1.26-0.12c0.73,0.06,1.47,0.16,2.15,0.41c0.56,0.21,1.06,0.57,1.49,0.99
					c0.4,0.39,0.71,0.87,0.99,1.39c0.25,0.53,0.46,1.11,0.6,1.68c0.31,1.23,0.46,2.49,0.75,3.72c0.27,1.16,0.7,2.29,1.13,3.42
					L71.64,56.28z M61.03,61.86l0.16,0.95l0.52,1.9L61.03,61.86L61.03,61.86z M61.7,64.7l0.02,0.08l0,0L61.7,64.7z"/>
			</g>
		</g>
		<g>
			<path class="st4" d="M59.86,45.86c0.41-0.14,0.82-0.32,1.24-0.37c0.36-0.04,0.73-0.04,1.1,0.04c0.33,0.06,0.66,0.2,0.97,0.38
				c0.31,0.18,0.6,0.39,0.85,0.67c0.55,0.65,1.08,1.35,1.44,2.12c0.9,1.92,1.54,3.95,2.22,5.97c0.69,2.06,1.29,4.15,2.18,6.11
				c0.36,0.83,0.97,1.52,1.51,2.25l0,0c-0.57-0.71-1.18-1.38-1.59-2.21c-0.94-1.94-1.68-4-2.42-6.03c-0.71-2-1.27-4.05-2.1-6
				c-0.34-0.77-0.82-1.46-1.34-2.11c-0.21-0.28-0.5-0.5-0.81-0.69c-0.29-0.18-0.6-0.32-0.93-0.4c-0.35-0.08-0.72-0.1-1.08-0.06
				C60.68,45.58,60.27,45.74,59.86,45.86z"/>
		</g>
		<g>
			<path class="st5" d="M58.72,49.84c0.39-0.34,0.82-0.65,1.23-1.01c0.18-0.16,0.31-0.36,0.42-0.57c0.06-0.12,0.08-0.24,0.1-0.38
				c0.02-0.16,0-0.32,0.02-0.47c0-0.02,0.02-0.06,0.06-0.08c0.02,0,0.06,0.02,0.08,0.06c0.11,0.15,0.17,0.35,0.31,0.49
				c0.09,0.12,0.19,0.23,0.33,0.26c0.43,0.14,0.89,0.12,1.32,0.16c0.29,0.02,0.58,0.06,0.83,0.16c0.29,0.1,0.58,0.23,0.8,0.47
				c0.5,0.5,0.95,1.05,1.27,1.67c0.73,1.42,1.24,2.94,1.76,4.47l0,0c-0.6-1.49-1.14-2.97-1.97-4.33c-0.34-0.58-0.86-1.01-1.36-1.44
				c-0.19-0.18-0.43-0.34-0.66-0.46c-0.21-0.12-0.44-0.18-0.67-0.22c-0.48-0.08-0.95-0.09-1.39-0.27l-0.21-0.14l-0.17-0.2
				l-0.15-0.24l-0.01-0.06l-0.04,0.2l-0.06,0.22c-0.06,0.18-0.16,0.36-0.27,0.5c-0.25,0.3-0.6,0.48-0.89,0.72L58.72,49.84z"/>
		</g>
		<g>
			<path class="st4" d="M59.03,50.45c0.15,0.69,0.27,1.42,0.54,2.08c0.25,0.58,0.6,1.11,0.95,1.64c0.6,0.89,1.29,1.7,2.01,2.51l0,0
				c-0.79-0.75-1.66-1.42-2.34-2.29c-0.39-0.51-0.62-1.17-0.79-1.78C59.19,51.89,59.14,51.18,59.03,50.45z"/>
		</g>
		<g>
			<path class="st4" d="M66.06,68.72c-0.06-0.83-0.07-1.68-0.29-2.49c-0.16-0.65-0.43-1.26-0.8-1.81c-0.25-0.38-0.58-0.68-0.95-0.93
				c-0.09-0.08-0.23-0.06-0.35-0.08l-0.04-0.02h-0.06h-0.04l-0.05,0.02l-0.37,0.32l-0.27,0.36l-0.21,0.48
				c-0.08,0.24-0.06,0.49-0.16,0.71c-0.09,0.2-0.22,0.4-0.29,0.61c-0.08,0.28-0.13,0.55-0.13,0.85c0.02,0.71,0.13,1.4,0.23,2.11
				h-0.02c-0.12-0.71-0.27-1.4-0.32-2.13l0.02-0.46l0.06-0.42l0.12-0.37l0.14-0.3l0.11-0.67l0.17-0.56l0.27-0.45
				c0.09-0.16,0.24-0.3,0.37-0.42c0.11-0.1,0.24-0.18,0.38-0.2c0.14,0,0.27,0.02,0.4,0.1c0.27,0.16,0.52,0.37,0.74,0.63
				c0.36,0.45,0.66,0.99,0.85,1.54c0.25,0.73,0.42,1.48,0.46,2.25v1.33H66.06z"/>
		</g>
		<g>
			<path class="st4" d="M63.12,67c0.11,0.53,0.21,1.07,0.39,1.6c0.11,0.28,0.24,0.55,0.35,0.83c0.1,0.22,0.25,0.4,0.38,0.6
				c0.15,0.22,0.29,0.45,0.41,0.69l0,0c-0.15-0.2-0.31-0.42-0.5-0.61c-0.17-0.16-0.37-0.32-0.53-0.51c-0.21-0.28-0.35-0.57-0.4-0.91
				C63.12,68.13,63.14,67.55,63.12,67z"/>
		</g>
		<g>
			<path class="st5" d="M66.48,69.15c1.21,0.08,3.05,1.01,4.2,1.36l-0.73-0.73L66.48,69.15z"/>
		</g>
		<g>
			<path class="st5" d="M70.43,70.23c0.33,1.86,0.6,3.71,1.1,5.51c0.46,1.66,1.04,3.28,1.77,4.83c1.38,2.85,3.08,5.52,4.78,8.17l0,0
				c-1.82-2.61-3.75-5.14-5.18-7.99c-0.77-1.54-1.16-3.26-1.55-4.94C70.91,73.96,70.7,72.08,70.43,70.23z"/>
		</g>
		<g>
			<path class="st4" d="M65.79,55.39c-0.32,0.53-0.6,1.15-1.09,1.58c-0.19,0.18-0.5,0.2-0.75,0.2c-0.27,0-1.52-0.69-1.77-0.78
				l0.97,0.6c0.25,0.02,0.52,0.08,0.77,0.02c0.21-0.06,0.37-0.22,0.54-0.38C64.93,56.26,65.36,55.83,65.79,55.39z"/>
		</g>
		<g>
			<g>
				<path class="st3" d="M82.76,90.06c-0.11-5.68-0.15-11.37-0.79-17.01c-0.29-2.57-0.85-5.12-1.65-7.57
					c-0.44-1.34-1.22-3.42-2.22-4.65v-0.55l1.5,2.08l1.32,2.93L82,68.85c0.99,4.21,1.54,8.52,1.72,12.84l-0.08,8.45L82.76,90.06
					L82.76,90.06z M78.1,60.28L78.1,60.28L78.1,60.28L78.1,60.28z M78.1,60.83c-0.1-0.1-0.17-0.2-0.27-0.3
					c-0.47-0.47-1.02-0.85-1.61-1.16c-0.83-0.48-1.75-0.69-2.61-1.15c-0.54-0.28-1.04-0.61-1.45-1.09
					c-0.21-0.25-0.35-0.55-0.52-0.85l0,0c0.18,0.28,0.35,0.58,0.56,0.81c0.85,0.95,2.11,1.21,3.23,1.66l0.91,0.36l0.91,0.49
					l0.85,0.67l0,0L78.1,60.83L78.1,60.83z M78.1,60.28L78.1,60.28L78.1,60.28L78.1,60.28L78.1,60.28z"/>
				<path class="st3" d="M82.76,90.06c-0.11-5.68-0.15-11.37-0.79-17.01c-0.29-2.57-0.85-5.12-1.65-7.57
					c-0.48-1.45-1.33-3.76-2.49-4.95c-0.47-0.47-1.02-0.85-1.61-1.16c-0.83-0.48-1.75-0.69-2.61-1.15
					c-0.54-0.28-1.04-0.61-1.45-1.09c-0.21-0.25-0.35-0.55-0.52-0.85l0,0c0.18,0.28,0.35,0.58,0.56,0.81
					c0.85,0.95,2.11,1.21,3.23,1.66l0.91,0.36l0.91,0.49l0.85,0.67l1.5,2.08l1.32,2.93L82,68.84c0.99,4.21,1.54,8.52,1.72,12.84
					l-0.08,8.45L82.76,90.06L82.76,90.06z M78.1,60.28L78.1,60.28L78.1,60.28L78.1,60.28z"/>
			</g>
		</g>
		<g>
			<path class="st6" d="M107.6,53.57c-0.82,0.67-1.47,1.49-2.05,2.38v-1.01c0.54-0.71,1.08-1.32,1.64-1.9
				c-0.51-0.57-1.04-1.05-1.64-1.44v-0.99c0.89,0.37,1.68,0.91,2.39,1.62c1.53-0.93,2.83-1.62,3.87-2.08
				c2.94-1.28,8.1-0.81,9.65,2.49c-0.06,0.06-0.12,0.1-0.2,0.12c-0.08,0.04-0.13,0.04-0.19,0.04c-0.58,0-0.81-1.07-1.41-1.14
				c-2.37-1.27-5.24-1.31-8.06-0.44c-1.18,0.32-2.27,0.75-3.26,1.33c2.17,2.49,1.69,6.74-1.04,8.52c-0.56,0.36-1.14,0.65-1.76,0.89
				v-0.4l0.06-0.02c0.81-0.39,1.5-1.03,2.06-1.91c1.03-1.65,0.88-3.09,0.49-4.87C108.08,54.38,107.88,53.99,107.6,53.57L107.6,53.57
				z M105.55,72.99V72.3c0.31-0.2,0.64-0.48,1.01-0.83c0.33-0.38,0.56-0.75,0.73-1.15c0.06,0.16,0.1,0.3,0.1,0.42
				c0,0.89-1.09,1.72-1.72,2.2C105.62,72.95,105.58,72.97,105.55,72.99z M105.55,55.95c-1.2,1.87-2.02,4.13-2.88,6.11
				c0.14,0.02,0.33,0.04,0.56,0.04c0.33,0,0.71-0.05,1.14-0.17c0.41-0.12,0.81-0.24,1.18-0.36v0.4c-0.52,0.2-1.08,0.35-1.64,0.48
				c1.45,1.9,1.18,2.67,0.29,6.28c-0.81,1.94-1.34,5.5,1.35,3.58V73c-0.85,0.53-2.46,0.89-2.85-0.34c-0.58-1.98,0.52-4.13,1.09-5.95
				c0.27-0.93,0.42-1.86,0.42-2.79c0-0.87-0.58-1.48-1.51-1.48c-0.56,0-1.08,0.53-1.59,1.58c-1.08,2.31-1.87,4.13-3.57,6.05
				c-0.86,0.93-1.72,1.64-2.42,2.12l0.6-0.6c1.34-1.54,2.61-3.5,3.83-5.85c1.2-2.35,2.42-4.71,3.64-7.01
				c0.73-1.43,1.52-2.69,2.36-3.78L105.55,55.95L105.55,55.95z M105.55,50.61v0.99c-1.39-0.93-3.08-1.4-5.01-1.4
				c-1.25,0-2.61,0.31-4.08,0.93c-1.47,0.61-2.85,1.62-4.14,3.04c-0.08,0.06-0.14,0.14-0.19,0.22v-0.93
				c0.17-0.18,0.34-0.34,0.52-0.48c1.62-1.34,3.07-2.13,4.33-2.41c1.26-0.27,2.18-0.45,2.8-0.53s1.24-0.12,1.85-0.12
				c1.26,0,2.44,0.18,3.49,0.53C105.27,50.51,105.41,50.55,105.55,50.61L105.55,50.61z M92.12,73.53v-0.24
				c0.23-0.04,0.45-0.1,0.68-0.17c0.65-0.2,1.33-0.48,2.05-0.87c-0.91,0.51-1.82,0.95-2.69,1.27L92.12,73.53L92.12,73.53z
				 M92.12,63.1c0.29,0.08,0.6,0.12,0.89,0.12c0.34,0,0.66-0.05,0.93-0.15c1.48-0.3,2.78-1.15,3.9-2.57
				c1.14-1.4,1.88-2.97,2.22-4.63c-0.19-0.12-0.4-0.08-0.63,0.11c-0.21,0.18-0.38,0.26-0.51,0.22c-0.23,1.38-0.48,2.47-0.77,3.28
				c-0.27,0.81-0.77,1.54-1.51,2.16c-0.76,0.63-1.72,0.95-2.95,0.95c-0.62,0-1.15-0.12-1.57-0.32L92.12,63.1L92.12,63.1z
				 M92.12,53.46v0.93c-1.8,2.19-2.55,6.64,0,7.89v0.83c-0.08,0-0.15-0.02-0.21-0.04c-0.37-0.12-0.85-0.36-1.43-0.76
				c-0.41-0.37-0.69-0.81-0.85-1.37c-0.17-0.53-0.25-1.14-0.25-1.85c0-0.48,0.02-0.81,0.04-1.01C89.88,56.24,90.79,54.7,92.12,53.46
				L92.12,53.46z M92.12,73.29v0.24c-0.85,0.29-1.72,0.45-2.62,0.45c-0.59,0-1.13-0.08-1.66-0.25c-0.52-0.18-1.02-0.46-1.49-0.85
				c-0.27-0.28-0.46-0.59-0.62-0.91c-0.13-0.3-0.21-0.65-0.21-1.01c0-0.23,0.06-0.51,0.18-0.83c0.05-0.48,0.34-0.71,0.87-0.71
				c0.4,0,0.68,0.15,0.82,0.47c-0.43,0.24-0.66,0.64-0.66,1.17c0,0.48,0.21,0.88,0.62,1.26c0.39,0.36,0.89,0.63,1.47,0.83
				c0.58,0.18,1.2,0.25,1.84,0.25C91.15,73.41,91.66,73.37,92.12,73.29z"/>
		</g>
		<g>
			<path class="st1" d="M112.93,65.57c-0.45,0.08-0.85,0.26-1.2,0.53v-0.86c0.62-0.32,1.27-0.5,1.95-0.5c0.68,0,0.97,0.29,1.02,0.73
				v0.3c-0.1,0.98-1.14,2.39-1.85,2.73c-0.39,0.25-0.76,0.43-1.12,0.57v-0.64c0.21-0.13,0.43-0.29,0.64-0.49
				c0.65-0.56,0.98-1.19,0.98-1.9c0.02-0.09,0-0.19-0.03-0.33C113.26,65.59,113.13,65.56,112.93,65.57L112.93,65.57z M111.73,73.43
				v-0.3c1.35-0.67,2.28-1.58,2.73-3.1C114.46,71.39,113.15,72.68,111.73,73.43z M111.73,66.11c-0.21,0.14-0.39,0.34-0.56,0.55
				c-0.41,0.51-1.61,2-0.85,2.42c0.48-0.12,0.95-0.33,1.41-0.64v0.64c-0.7,0.25-1.35,0.35-1.99,0.51c-0.29,0.22-0.49,0.5-0.62,0.79
				c-0.11,0.28-0.17,0.64-0.17,1.05c0,0.38,0.04,0.73,0.11,1.07c0.52,1.28,1.65,1.13,2.61,0.65l0.06-0.02v0.3
				c-0.79,0.41-1.62,0.67-2.26,0.67c-0.43,0-0.78-0.1-1.04-0.26c-0.27-0.18-0.45-0.47-0.55-0.92c-0.06-0.26-0.09-0.52-0.11-0.8
				v-0.41c0.1-2.45,1.76-5.32,3.96-6.46L111.73,66.11L111.73,66.11z"/>
		</g>
		<g>
			<path class="st1" d="M119.64,72.59c0.93-0.7,1.68-1.5,2.27-2.39c-0.43,0.83-1.03,1.56-1.77,2.19c-1.2,1.03-2.82,1.88-4.41,1.42
				c-1.68-0.47-0.89-2.88-0.5-3.97c0.85-2.41,2.86-5.22,5.63-5.22c0.71,0,1.14,0.3,1.27,0.87c0.08,0.28,0.02,0.55-0.17,0.81
				c-0.21,0.27-0.47,0.39-0.76,0.39c-0.11,0.04-0.23,0.06-0.35,0.08s-0.21,0-0.27-0.08c0.07-0.14,0.17-0.3,0.29-0.46
				c0.66-0.37,0.93-0.69,0.81-0.97c-0.09-0.35-0.39-0.51-0.81-0.51c-0.29,0-0.58,0.06-0.87,0.18c-1.57,0.65-2.69,2.17-3.36,3.7
				C115,71.26,115.1,75.46,119.64,72.59z"/>
		</g>
		<g>
			<path class="st1" d="M126.8,60.85c0.48,0,0.73,0.22,0.73,0.68c0.04,0.33-0.14,0.63-0.49,0.85c-0.5,0.18-0.81,0.04-0.95-0.43
				c-0.11-0.26-0.07-0.5,0.08-0.73C126.36,60.97,126.55,60.85,126.8,60.85L126.8,60.85z M124.67,64.81l1.21,0.06
				c-0.49,1.05-6.58,10.28-1.72,8.09l2.76-2.67c-1.31,1.76-2.6,4.47-5.18,3.68c-0.6-0.13-1.3-1.07-0.85-1.57
				C122.14,69.87,123.42,67.34,124.67,64.81z"/>
		</g>
		<g>
			<path class="st1" d="M133.29,64.9c0.66-0.2,1.39-0.23,2.07-0.02c0.27,0.1,0.48,0.4,0.57,0.9c-0.15,0.69-0.69,1.81-1.6,3.4
				c-0.89,1.6-1.45,2.76-1.64,3.56c-0.19,0.91,1.18,0.48,1.54,0.33c0.43-0.15,0.97-0.45,1.61-0.88c0.62-0.44,1.22-1.17,1.76-2.19
				c-0.45,1.75-2.04,2.75-3.58,3.49c-0.68,0.33-1.24,0.5-1.7,0.5c-0.04,0-0.06,0-0.09,0v-3.22l0.02-0.04
				c0.43-1.06,2.87-4.4,2.19-5.2c-0.27-0.32-0.53-0.52-0.79-0.61h-0.36V64.9z M132.25,65.41c0.29-0.17,0.58-0.33,0.9-0.45
				c-0.14-0.04-0.42,0.02-0.9,0.16V65.41z M132.25,73.98c-1.06-0.05-1.02-1.3-0.64-2.06c0.22-0.38,0.43-0.77,0.64-1.16V73.98
				L132.25,73.98z M132.25,65.12l-0.05,0.02c-0.48,0.15-0.79,0.25-0.91,0.33c0.1-0.5-0.12-0.73-0.6-0.73
				c-0.37,0-0.62,0.06-0.79,0.22l-4.52,8.56c0.38,0.49,1.09,0.12,1.57-0.02c0.83-1.62,1.66-3.25,2.52-4.91
				c0.85-1.48,1.78-2.54,2.8-3.19v-0.28H132.25z"/>
		</g>
		<g>
			<path class="st1" d="M143.35,59.94c0.45,0,0.83-0.28,1.28-0.28c0.13,0,0.27,0.04,0.41,0.13l-2.57,5.12l2.24,0.16v0.16
				c-0.54,0-1.08,0-1.58,0c-0.42,0-0.77,0.22-1.07,0.65c-0.29,0.43-0.7,1.13-1.24,2.09c-0.52,0.95-0.97,1.74-1.31,2.36
				c-0.45,0.81-1.73,2.35-0.55,3.06c1.92,0,3.23-2.02,4.57-3.14c0,0.12,0,0.24,0,0.36c-0.76,0.71-1.53,1.42-2.3,2.12
				c-1.22,1.01-2.76,1.82-4.14,0.63c-0.17-0.18-0.17-0.47,0-0.88C139.25,68.7,141.34,64.51,143.35,59.94z"/>
		</g>
		<g>
			<path class="st1" d="M148.51,65.79c-0.13,0.14-0.29,0.25-0.42,0.4v-0.88c0.79-0.47,1.6-0.75,2.42-0.75
				c1.22,0,1.72,0.66,1.82,1.53v0.69c-0.12,1.21-0.76,2.63-1.24,3.38c-0.62,0.95-1.74,2.32-3,3.17v-0.59
				c0.56-0.42,1.16-1.13,1.82-2.18c0.64-1.03,1.78-3.56,0.67-4.66C150.02,65.32,149.16,65.38,148.51,65.79z M148.09,66.19
				c-1.84,1.74-3.33,3.75-2.85,6.49c0.23,1.25,2.09,0.55,2.67,0.18c0.06-0.04,0.12-0.08,0.17-0.12v0.59
				c-1.02,0.69-2.16,1.03-3.23,0.51c-0.74-0.37-0.97-1.1-0.97-1.9c0-2.29,1.92-5.26,4.2-6.63L148.09,66.19L148.09,66.19z"/>
		</g>
		<g>
			<path class="st1" d="M174.53,69.88c1.59-2.11,2.69-4.74,3.63-7c-0.09-0.04-0.23-0.04-0.42-0.04c-1.17,0-2.28,0.59-3.21,1.46
				v-1.19c0.98-0.81,2.17-1.37,3.37-1.37c0.39,0,0.71-0.06,0.97-0.18c0.5-0.64,2.4-4.7,3.15-5.69c1.47-1.8,2.69-3.42,4.29-4.08
				c-1.23,1.27-2.45,2.87-3.66,4.85c-1.21,1.96-2.02,3.72-2.45,5.24c0.62,0.46,0.94,1.11,0.94,1.92c0,0.23-0.04,0.48-0.11,0.71
				c-0.25,0.35-0.58,0.5-0.99,0.41c0-0.33,0-0.61,0-0.85c0-0.34-0.08-0.57-0.21-0.71c-1.33,2.63-3.01,5.72-5.3,7.91L174.53,69.88
				L174.53,69.88z M174.53,60.04c1.43-0.97,2.46-2.36,2.46-4.09c-0.15-1.19-0.85-1.7-1.93-1.7c-0.18,0-0.35,0.02-0.52,0.04v0.58
				c1.2,0.2,1.45,1.12,1.01,2.39c-0.29,0.61-0.64,1.19-1.01,1.7v1.08H174.53z M174.53,50.57v-0.63c1.7-0.28,3.37-0.38,4.66-0.32
				c3.21,0,6.4,0.41,9.67,0.41c2.51,0,4.91-0.15,7.33-0.91c0.12,0.26,0.08,0.56-0.09,0.85c-0.18,0.32-0.37,0.53-0.6,0.65
				c-1.76,0.5-3.69,0.63-5.51,0.63c-1.3,0-3.43-0.13-6.38-0.41c-2.94-0.28-5.01-0.41-6.19-0.41
				C176.4,50.43,175.46,50.47,174.53,50.57z M172.17,67.55c-0.83,1.7-1.41,3.56-1.24,5.44c1.43-0.69,2.61-1.8,3.6-3.11v1.41
				c-1.06,1.01-2.24,1.82-3.6,2.31c-0.14,1.21,0.41,2.42,0.72,3.64c-0.64-1.09-1.07-2.15-1.26-3.22c-1.26,0.4-2.34,0.77-3.65,0.69
				c-0.39,0-0.78-0.02-1.16-0.05c-1.82-0.1-4.62-0.96-4.89-3.46v-0.77c0-0.1,0.01-0.22,0.04-0.34c0.19-0.54,0.44-0.91,0.67-1.15
				l1.03,0.28c-1.65,1.6-0.95,3.36,1.7,4.51c0.89,0.4,1.88,0.59,2.94,0.59c0.77,0,1.47-0.1,2.1-0.26c0.62-0.18,0.99-0.37,1.11-0.61
				c0.33-2.59,0.54-5.5,2.55-8.48c0.44-0.67,1.03-1.32,1.7-1.86v1.19C173.5,65.24,172.67,66.49,172.17,67.55L172.17,67.55z
				 M174.53,49.94v0.63c-0.13,0.03-0.27,0.04-0.41,0.06c-1.84,0.22-3.89,0.73-5.55,2.03c-2.47,1.98-3.74,6.06-0.42,7.97
				c1.7,0.99,3.81,0.91,5.3-0.47c0.38-0.36,0.76-0.76,1.09-1.21v1.09c-2.07,1.4-5.03,1.92-7.04,1.32c-1.62-0.47-2.66-2.43-2.66-4.05
				C164.82,52.85,169.9,50.71,174.53,49.94L174.53,49.94z M174.53,54.28c-0.89,0.12-1.68,0.55-2.4,1.25
				c0.64-0.37,1.12-0.71,1.88-0.71c0.19,0,0.37,0.02,0.52,0.04V54.28z"/>
		</g>
		<g>
			<path class="st1" d="M183.92,64.67c0.16,0,0.35,0,0.59,0c0.21,0,0.37,0.06,0.44,0.18c-1.19,2.57-3.48,5.15-3.85,7.99
				c-0.09,0.44,0.2,0.7,0.6,0.7c0.34,0,0.9-0.2,1.64-0.63c0.74-0.41,1.22-0.69,1.43-0.84c0.83-1.14,1.65-2.49,2.46-4.01
				c0.81-1.54,1.37-2.61,1.68-3.21h1.31c-0.4,1.03-0.98,2.2-1.74,3.54c-0.73,1.33-1.42,2.61-2.1,3.82
				c-0.25,0.33-0.12,1.19,0.29,1.32c0.48,0.12,1.14-0.1,1.99-0.7c0.87-0.59,1.6-1.32,2.24-2.17c-0.19,0.61-0.5,1.13-0.95,1.54
				c-0.42,0.43-0.91,0.79-1.43,1.08c-0.52,0.28-0.91,0.5-1.16,0.61c-0.23,0.12-0.55,0.2-0.9,0.2c-0.44,0-0.83-0.17-1.15-0.53
				l-0.55-1.13c-0.81,0.48-1.55,0.87-2.18,1.19c-0.66,0.31-1.2,0.47-1.65,0.47c-0.29,0-0.57-0.1-0.83-0.28
				c-0.27-0.16-0.39-0.49-0.39-0.96c0-0.28,0.04-0.59,0.15-0.95c0.12-0.34,0.52-1.17,1.22-2.49
				C181.8,68.07,182.75,66.51,183.92,64.67z"/>
		</g>
		<g>
			<path class="st1" d="M197.88,64.9c0.39-0.12,0.74-0.16,1.05-0.16c0.84,0,1.43,0.1,1.63,1.03c-0.58,2.49-2.63,4.45-3.25,6.96
				c-0.08,0.38,0.1,0.57,0.54,0.57c0.25,0,0.58-0.08,1.01-0.24c0.42-0.15,0.96-0.45,1.58-0.88c0.64-0.44,1.24-1.17,1.78-2.19
				c-0.15,0.65-0.38,1.12-0.66,1.4c-0.27,0.3-0.66,0.65-1.16,1.03c-0.5,0.4-1.1,0.75-1.76,1.07c-0.68,0.33-1.24,0.5-1.7,0.5
				c-0.02,0-0.04,0-0.08,0v-3.27c0.44-0.89,0.97-1.74,1.28-2.3c0.44-0.75,1.38-2.16,0.93-2.91c-0.27-0.32-0.54-0.52-0.79-0.61
				H197.88L197.88,64.9z M196.86,65.41c0.29-0.19,0.6-0.33,0.89-0.45c-0.14-0.04-0.43,0.02-0.89,0.16V65.41z M196.86,73.98
				c-0.5-0.02-0.79-0.28-0.87-0.79c0.08-0.69,0.44-1.6,0.87-2.46V73.98L196.86,73.98z M196.86,65.12l-0.06,0.02
				c-0.48,0.15-0.79,0.25-0.9,0.33c0.1-0.5-0.11-0.73-0.62-0.73c-0.34,0-0.6,0.06-0.77,0.22l-4.52,8.56
				c0.13,0.18,0.32,0.25,0.54,0.25c0.35-0.08,0.69-0.18,1.03-0.27c0.83-1.62,1.66-3.25,2.51-4.91c0.85-1.48,1.8-2.55,2.8-3.19v-0.28
				H196.86z"/>
		</g>
		<g>
			<path class="st1" d="M207.18,65.57c-0.5,0.1-0.96,0.32-1.35,0.62v-0.85c0.48-0.26,1-0.46,1.53-0.64
				c0.61-0.11,1.56-0.09,1.68,0.66v0.3v0.02c-0.16,1.4-1.1,2.35-2.19,2.83c-0.37,0.15-0.69,0.31-1.02,0.45v-0.44
				c0.26-0.16,0.54-0.34,0.79-0.57c0.64-0.56,0.96-1.19,0.96-1.9C207.69,65.76,207.48,65.54,207.18,65.57L207.18,65.57z
				 M205.83,73.47v-0.28c0.04-0.02,0.06-0.02,0.1-0.04c0.52-0.25,1-0.63,1.52-1.07c0.54-0.43,0.96-1.11,1.24-2.06
				C208.62,71.59,207.13,72.81,205.83,73.47z M205.83,66.19c-0.83,0.65-1.41,1.7-1.76,2.67l0.5,0.22c0.42-0.12,0.85-0.3,1.26-0.56
				v0.44c-0.62,0.25-1.2,0.47-1.86,0.63c-0.27,0.22-0.49,0.5-0.6,0.79c-0.3,0.69-0.35,1.39-0.18,2.12c0.5,1.25,1.68,1.13,2.63,0.69
				v0.28c-0.13,0.06-0.27,0.12-0.41,0.18c-0.83,0.35-1.9,0.71-2.74,0.19c-0.68-0.43-0.7-1.46-0.7-2.17
				c0.68-3.56,2.05-5.34,3.85-6.33L205.83,66.19L205.83,66.19z"/>
		</g>
		<g>
			<path class="st1" d="M212.91,64.78c0.21-0.14,0.41-0.02,0.56,0.32c0.06,0.1,0.08,0.24,0.04,0.42c-0.02,0.16-0.04,0.31-0.08,0.44
				c0.2,0.13,0.37,0.19,0.55,0.19c0.27,0,0.61-0.24,1.04-0.69c0.44-0.43,0.81-0.6,1.14-0.43c-0.11,0.18-0.6,0.77-1.49,1.74
				c-1.1,1.32-2.01,2.77-2.67,4.41c-0.12,0.3-0.13,0.6-0.13,0.89c0,0.42,0.02,0.75,0.17,1.03c0.82,1.5,3.75-2.47,4.29-3.06
				c-0.66,0.93-1.22,1.64-1.64,2.12c-0.43,0.49-0.87,0.91-1.34,1.29c-0.46,0.38-0.89,0.55-1.27,0.55c-0.26,0-0.52-0.12-0.79-0.33
				c-0.27-0.22-0.41-0.58-0.41-1.07c0-0.28,0.02-0.52,0.07-0.69c0.06-0.2,0.18-0.51,0.39-0.99c0.66-1.46,1.7-2.68,2.54-4.05
				c-0.25-0.11-0.5-0.23-0.76-0.38c-0.27-0.12-0.46-0.1-0.6,0.06c-0.41,0.38-1.07,1.24-1.96,2.61c-0.89,1.37-1.36,2.06-1.41,2.08
				l-0.06-0.27C210.37,68.9,211.64,66.84,212.91,64.78z"/>
		</g>
		<g>
			<path class="st1" d="M219.3,68.07c-0.88,1.31-2.32,2.83-1.47,4.81c0.12,0.36,0.99,0.75,1.33,0.65c0.25-0.06,0.66-0.02,0.83-0.14
				c-1.48,1.28-3.74,0.68-3.74-1.47c0-2.3,2.84-5.26,4.49-6.48c1-0.76,1.91-1.13,2.77-1.13c0.6,0,1.1,0.24,1.43,0.53
				c0.33,0.3,0.54,0.45,0.62,0.45c0.34-0.15,0.6-0.26,0.79-0.27v0.67l-3.69,6.82c-0.41,2.02,2.59,0.43,3.21-0.06
				c0.68-0.52,1.28-1.05,1.8-1.58c-0.46,0.73-1.24,1.43-2.34,2.1c-1.08,0.67-2.01,1.01-2.75,1.01c-0.41,0-0.7-0.08-0.84-0.25
				c-0.13-0.18-0.21-0.38-0.27-0.61c-0.03-0.22-0.09-0.38-0.17-0.43c-0.2-0.1-0.41-0.04-0.62,0.18c-0.22,0.21-0.37,0.36-0.47,0.38
				c0.97-0.77,1.77-1.72,2.38-2.87c0.62-1.12,1.29-2.57,2.04-4.31C223.21,63.07,220.29,66.64,219.3,68.07z"/>
		</g>
		<g>
			<path class="st1" d="M236.45,54.51c0.39-0.26,1.04-0.14,1.49-0.14c-1.9,3.76-9.61,16.55-9.5,18.87c0.1,0.2,0.27,0.3,0.56,0.3
				c0.68-0.1,1.38-0.48,2.06-1.17c0.69-0.67,1.33-1.34,1.93-1.98c-1.18,1.56-1.74,2.73-3.52,3.32c-0.56,0.18-1.08,0.28-1.54,0.28
				c-0.27,0-0.52-0.04-0.73-0.14c-0.23-0.09-0.25-0.33-0.1-0.75C229.49,66.68,233.47,60.83,236.45,54.51z"/>
		</g>
		<g>
			<path class="st5" d="M54.29,97.57c0.35-0.3,0.72-0.57,1.01-0.92c0.31-0.38,0.58-0.79,0.74-1.25c0.37-1.09,0.69-2.19,0.75-3.34
				c0.12-2.86-0.19-5.73-0.27-8.62c-0.1-2.85-0.19-5.73,0.12-8.56c0.11-1.15,0.56-2.24,1.07-3.27c0.22-0.45,0.57-0.85,0.94-1.19
				c0.39-0.33,0.85-0.55,1.3-0.81l0,0c-0.42,0.27-0.87,0.53-1.23,0.89c-0.34,0.35-0.67,0.75-0.87,1.2c-0.42,1.03-0.79,2.1-0.83,3.2
				c-0.16,2.83,0.19,5.64,0.37,8.46c0.17,2.93,0.42,5.86,0.27,8.76c-0.06,1.24-0.41,2.45-0.81,3.62c-0.18,0.53-0.5,1.03-0.85,1.46
				c-0.35,0.44-0.79,0.77-1.22,1.13L54.29,97.57z"/>
		</g>
		<g>
			<path class="st5" d="M67.06,69.51c0.06,0.59,0.16,1.18,0.12,1.8c-0.04,0.53-0.2,1.04-0.41,1.54c-0.1,0.2-0.25,0.35-0.41,0.49
				c-0.06,0.08-0.13,0.12-0.21,0.16c-0.17,0.09-0.41,0.14-0.58,0.05c-0.14-0.05-0.25-0.14-0.35-0.26l-0.23-0.27l0,0
				c0.16,0.16,0.29,0.31,0.48,0.41c0.06,0.04,0.13,0.06,0.21,0.06c0.17,0.02,0.36-0.06,0.48-0.18c0.09-0.08,0.19-0.18,0.25-0.3
				c0.16-0.29,0.25-0.63,0.35-0.97c0.15-0.53,0.32-1.09,0.32-1.66L67.06,69.51z"/>
		</g>
		<g>
			<path class="st7" d="M56.97,77.62l4.47-2.64h0.02C60.02,76.08,58.62,76.91,56.97,77.62z"/>
		</g>
		<g>
			<path class="st7" d="M65.57,74.67c2.05,1.15,4.48,2.6,6.47,3.87l-0.43-0.24C69.46,77.27,67.49,76.08,65.57,74.67z"/>
		</g>
		<rect x="88.16" y="80.29" class="st1" width="142.07" height="1.21"/>
	</g>
	<path class="st5" d="M10.98,89.94c0-7.69,1.87-15.18,5.3-22.29c3.53-7.2,8.73-14.01,15.49-20.34c11.75-11,27.55-19.76,45.74-25.79
		c18.29-6.04,38.87-9.24,60.5-9.24c21.42,0,42.1,3.21,60.4,9.24c18.3,6.03,34.09,14.79,45.83,25.79l0,0
		c6.65,6.33,11.85,13.14,15.28,20.34s5.2,14.6,5.2,22.29c0,21.51-14.24,40.98-37.32,54.99c-22.97,14.02-54.57,22.59-89.39,22.59
		c-21.62,0-42.21-3.21-60.5-9.24c-18.19-5.94-33.99-14.8-45.74-25.79l0,0c-6.75-6.23-11.95-13.05-15.38-20.15
		C12.85,105.13,10.98,97.54,10.98,89.94L10.98,89.94z M18.88,68.73c-3.33,6.81-5.09,13.91-5.09,21.21c0,7.21,1.77,14.41,5.09,21.32
		c3.32,6.82,8.31,13.33,14.86,19.37l0,0c11.44,10.81,26.82,19.37,44.7,25.21c17.88,5.94,38.25,9.15,59.56,9.15
		c34.3,0,65.38-8.57,87.84-22.2c22.35-13.62,36.07-32.31,36.07-52.85c0-7.3-1.66-14.4-4.99-21.21c-3.33-6.91-8.21-13.43-14.65-19.57
		l0,0c-11.43-10.71-26.92-19.27-44.8-25.21c-17.98-5.84-38.26-9.06-59.46-9.06c-21.31,0-41.68,3.12-59.56,9.06
		c-17.88,5.93-33.26,14.5-44.7,25.21C27.2,55.3,22.2,61.82,18.88,68.73L18.88,68.73z"/>
</g>
</svg>
