<?xml version="1.0" encoding="utf-8"?>
<!-- Generator: Adobe Illustrator 24.0.2, SVG Export Plug-In . SVG Version: 6.00 Build 0)  -->
<svg version="1.1" id="Layer_1" xmlns="http://www.w3.org/2000/svg" xmlns:xlink="http://www.w3.org/1999/xlink" x="0px" y="0px"
	 viewBox="0 0 436.49 289.19" style="enable-background:new 0 0 436.49 289.19;" xml:space="preserve">
<style type="text/css">
	.Arched_x0020_Green{fill:url(#SVGID_1_);stroke:#FFFFFF;stroke-width:0.25;stroke-miterlimit:1;}
	.st0{fill-rule:evenodd;clip-rule:evenodd;fill:url(#SVGID_2_);}
	.st1{fill-rule:evenodd;clip-rule:evenodd;fill:#FFFFFF;}
	.st2{fill-rule:evenodd;clip-rule:evenodd;fill:#FFFFFF;stroke:#FFFFFF;stroke-width:0.216;stroke-miterlimit:22.9256;}
	.st3{fill:#FFFFFF;stroke:#FFFFFF;stroke-width:0.216;stroke-miterlimit:22.9256;}
	.st4{fill:#FFFFFF;stroke:#FFFFFF;stroke-width:1.3493;stroke-miterlimit:22.9256;}
</style>
<linearGradient id="SVGID_1_" gradientUnits="userSpaceOnUse" x1="-83.3243" y1="713.6486" x2="-82.6172" y2="712.9415">
	<stop  offset="0" style="stop-color:#339A2A"/>
	<stop  offset="0.9831" style="stop-color:#121E0D"/>
</linearGradient>
<g>
	<linearGradient id="SVGID_2_" gradientUnits="userSpaceOnUse" x1="7.5225" y1="141.8586" x2="430.3589" y2="141.8586">
		<stop  offset="0" style="stop-color:#50A2CA"/>
		<stop  offset="0.4835" style="stop-color:#2F59A5"/>
		<stop  offset="1" style="stop-color:#0A0143"/>
	</linearGradient>
	<path class="st0" d="M7.52,141.95c0-73.38,94.84-132.86,211.59-132.86c116.75,0,211.24,59.48,211.24,132.86
		c0,73.2-94.49,132.68-211.24,132.68C102.36,274.63,7.52,215.14,7.52,141.95L7.52,141.95z"/>
	<path class="st1" d="M12.65,140.85c0-12.44,3.02-24.57,8.58-36.06c5.72-11.65,14.13-22.68,25.06-32.92
		c19.01-17.81,44.58-31.98,74.02-41.74c29.6-9.77,62.91-14.96,97.9-14.96c34.66,0,68.14,5.19,97.75,14.96
		c29.61,9.76,55.17,23.94,74.17,41.74l0,0c10.77,10.24,19.17,21.27,24.73,32.92c5.55,11.66,8.41,23.63,8.41,36.06
		c0,34.82-23.05,66.32-60.4,89c-37.17,22.69-88.32,36.55-144.67,36.55c-34.99,0-68.3-5.19-97.9-14.96
		c-29.44-9.62-55.01-23.95-74.02-41.74l0,0c-10.93-10.09-19.34-21.12-24.9-32.61C15.67,165.42,12.65,153.14,12.65,140.85
		L12.65,140.85z M25.43,106.52c-5.38,11.02-8.23,22.51-8.23,34.33c0,11.67,2.85,23.32,8.23,34.5c5.38,11.04,13.46,21.58,24.06,31.35
		l0,0c18.51,17.49,43.4,31.35,72.34,40.8c28.93,9.61,61.91,14.81,96.39,14.81c55.51,0,105.81-13.87,142.16-35.93
		c36.17-22.04,58.37-52.28,58.37-85.53c0-11.81-2.69-23.31-8.08-34.33c-5.39-11.19-13.28-21.74-23.71-31.67l0,0
		c-18.5-17.33-43.58-31.19-72.5-40.8c-29.1-9.46-61.91-14.65-96.23-14.65c-34.48,0-67.46,5.05-96.39,14.65
		C92.89,43.66,68,57.52,49.48,74.85C38.88,84.78,30.81,95.33,25.43,106.52L25.43,106.52z"/>
	<g>
		<path class="st2" d="M38.65,127.11c2.89,6.25,4.75,12.51,4.31,18.76c-0.69,19.07,6.64,29.33,16.89,31.71
			c-1.37-6.27-0.21-13.52,1.36-20.2c-1.47-3-3.82-9.74-4.42-13.61C55.04,136,50.79,130,44.04,125.79
			C37.37,121.66,34.17,120.79,38.65,127.11L38.65,127.11z"/>
		<path class="st2" d="M64.6,144.46c-4.55-5.1-3.59-5.65,1.01-5.11c3.52,0.65,8.78,1,8.75,6.09l-0.42,9.62
			c-0.79,4.97,0.3,5.33,3.76,3.23c5.14-8.37,12.82-13.36,25.23-14.44c8.02,0.09,14.82-0.53,21.42-3.76c3.42-3.95,4.71-5,2.72,2.62
			c-6.74,15.3-16.02,24.14-27.4,27.62c-5.9,1.75-11.23,4.3-14.79,8.37c-0.92,2.89-0.73,5.36,0.78,7.35
			c2.82,0.85,5.54,0.84,8.15-0.04c2.84-1.83,4.16-1.28,4.82,1.68l-0.01,3.56c-0.17,2.31,0.69,4.2,2.25,5.64l2.14,3.56
			c0.37,4.84-0.91,4.44-2.93,1.67c-3.9-4.75-8.15-6.57-15.06-6.79c-10.28-0.85-18.82-5.72-24.26-17.76
			c-1.63-8.19,0.07-15.42,2.79-22.96C64.31,151.96,65.41,148.25,64.6,144.46L64.6,144.46z"/>
		<path class="st2" d="M373.21,113.75c-6.57-9.08-5.52-8.9,2.97-1.74c5.6,4.97,9.5,11.01,11.33,18.33
			c-0.71,9.15-9.42,10.88-13.3,4.2C372.64,128.11,372.45,120.58,373.21,113.75L373.21,113.75z"/>
		<path class="st2" d="M377.42,140.43c-5.3-4.01-5.85-2.34-1.72,4.88c7,7.73,19.56,6.09,25.03-3.89c1.75-5.93,0.64-13.1-4.25-20.17
			c-4.41-5.03-9.73-9.34-17.06-12.04c-5.66-2.9-5.24-1.55-0.44,2.66C394.5,130.29,392.82,143.75,377.42,140.43L377.42,140.43z"/>
		<path class="st2" d="M375.26,151.65c-6.05-9.7,1.46-1.9,2.19-2.84c9.43,6.43,17.12,4.21,23.63-3.94c3.58-5.84,1.9,1.9,2.85,2.84
			C400.71,163.61,382.63,166.46,375.26,151.65L375.26,151.65z"/>
		<line class="st3" x1="231.5" y1="143.76" x2="231.5" y2="143.76"/>
		<line class="st4" x1="135.23" y1="141.89" x2="364.47" y2="141.89"/>
		<path class="st2" d="M126.1,108.32c4.65-1.09,8.62-3.1,11.91-6.03c3.28-2.93,4.92-5.68,4.92-8.21c0-0.77-0.22-1.39-0.67-1.84
			c-0.45-0.44-1.04-0.67-1.78-0.67c-1.05,0-2.34,0.54-3.91,1.62c-1.56,1.08-3.11,2.54-4.63,4.38c0.6,0.75,1.1,1.48,1.47,2.17
			c0.36,0.68,0.55,1.17,0.55,1.48c-0.02,0.1-0.05,0.18-0.1,0.23c-0.04,0.05-0.09,0.07-0.15,0.07c-0.21,0-0.55-0.39-1.01-1.19
			c-0.46-0.78-0.9-1.45-1.32-2.01c-0.99,1.27-1.89,2.72-2.74,4.33C127.79,104.29,126.94,106.17,126.1,108.32L126.1,108.32z
			 M121.13,109.2c1.15-2.35,2.46-4.57,3.93-6.66c1.48-2.08,3.12-4.05,4.94-5.89c-1.76-2.26-3.84-3.96-6.24-5.12
			c-2.4-1.16-5.05-1.75-7.96-1.75c-3.39,0-6.2,0.86-8.41,2.58c-2.22,1.72-3.33,3.84-3.33,6.35c0,2.82,1.51,5.29,4.51,7.39
			c3,2.1,6.63,3.16,10.88,3.16c0.19,0,0.47-0.01,0.85-0.03C120.67,109.22,120.95,109.2,121.13,109.2L121.13,109.2z M125.4,109.9
			c-3.45,8.71-7.58,15.16-12.42,19.34c-4.82,4.17-10.55,6.27-17.15,6.27c-4.89,0-8.84-1.2-11.89-3.6c-3.05-2.41-4.58-5.5-4.58-9.28
			c0-3.98,1.68-7.38,5.01-10.18c3.34-2.79,7.42-4.2,12.25-4.2c3.62,0,6.51,0.87,8.67,2.6c2.16,1.74,3.26,4.04,3.26,6.89
			c0,3.05-1.19,5.58-3.57,7.56c-2.39,2-5.41,3-9.09,3c-1.98,0-3.84-0.27-5.58-0.78c-1.74-0.51-2.6-1-2.6-1.41
			c0-0.03,0.01-0.07,0.04-0.11c0.03-0.05,0.06-0.08,0.08-0.08c0.09,0,1.02,0.27,2.74,0.78c1.73,0.52,3.41,0.79,5.04,0.79
			c3.48,0,6.34-0.89,8.61-2.68c2.27-1.79,3.4-4.04,3.4-6.73c0-2.33-0.92-4.18-2.77-5.56c-1.85-1.37-4.34-2.05-7.46-2.05
			c-4.42,0-8.24,1.33-11.46,3.99c-3.22,2.65-4.83,5.8-4.83,9.44c0,3.22,1.32,5.82,3.96,7.76c2.65,1.96,6.14,2.93,10.48,2.93
			c5.62,0,10.34-1.83,14.16-5.46c3.83-3.64,7.39-9.78,10.7-18.39c-0.57,0.04-1.12,0.08-1.67,0.12c-0.55,0.03-1.05,0.04-1.52,0.04
			c-4.31,0-7.87-1.09-10.68-3.27c-2.8-2.18-4.2-4.86-4.2-8.08c0-3.07,1.27-5.6,3.78-7.61c2.52-2,5.74-3,9.64-3
			c3.01,0,5.74,0.59,8.2,1.75c2.47,1.16,4.67,2.92,6.62,5.28c2.04-1.69,3.9-3,5.58-3.89c1.69-0.89,3.13-1.32,4.35-1.32
			c1.01,0,1.81,0.3,2.38,0.9c0.58,0.61,0.86,1.44,0.86,2.5c0,2.76-1.72,5.67-5.18,8.73C135.15,105.93,130.75,108.27,125.4,109.9
			L125.4,109.9z M126.87,132.44c0,0.6,0.13,1.07,0.4,1.42c0.26,0.34,0.64,0.52,1.11,0.52c0.7,0,1.55-0.35,2.59-1.05
			c1.03-0.68,2.11-1.66,3.24-2.9c1.69-1.86,3.01-3.68,3.95-5.45c0.93-1.77,1.39-3.3,1.39-4.58c0-0.55-0.2-1.02-0.6-1.4
			c-0.4-0.37-0.89-0.57-1.45-0.57c-1.03,0-2.13,0.44-3.35,1.33c-1.21,0.89-2.4,2.15-3.58,3.76c-1.15,1.61-2.05,3.23-2.7,4.84
			C127.19,129.98,126.87,131.34,126.87,132.44L126.87,132.44z M140.29,121.78l2.58-3.77l4.13-0.25l-6.9,10.86
			c-1.01,1.6-1.66,2.7-1.92,3.32c-0.26,0.6-0.39,1.15-0.39,1.6c0,0.34,0.07,0.59,0.2,0.75c0.15,0.15,0.4,0.23,0.75,0.23
			c0.52,0,1.36-0.45,2.49-1.35c1.14-0.89,2.56-2.22,4.28-4c0.48-0.49,1.06-1.08,1.69-1.81c0.65-0.71,1.04-1.07,1.18-1.07
			c0.13,0,0.21,0.03,0.27,0.07c0.06,0.05,0.1,0.11,0.1,0.18c0,0.23-0.23,0.63-0.7,1.2c-0.47,0.57-1.2,1.34-2.18,2.33
			c-2.2,2.27-3.84,3.75-4.88,4.42c-1.06,0.68-2.04,1.03-2.96,1.03c-0.84,0-1.47-0.26-1.92-0.8c-0.44-0.53-0.66-1.3-0.66-2.33
			c0-0.27,0.02-0.57,0.06-0.9c0.04-0.33,0.13-0.83,0.24-1.49c-1.43,1.82-2.81,3.2-4.16,4.12c-1.34,0.93-2.6,1.39-3.75,1.39
			c-1.13,0-2.01-0.57-2.66-1.7c-0.64-1.14-0.97-2.71-0.97-4.71c0-0.49,0.03-0.97,0.11-1.46c0.07-0.5,0.17-0.98,0.29-1.44
			c-0.24,0.38-0.48,0.69-0.7,0.9c-0.23,0.22-0.42,0.32-0.58,0.32c-0.15,0-0.24-0.02-0.3-0.06c-0.05-0.04-0.07-0.11-0.07-0.17
			c0-0.17,0.26-0.57,0.8-1.2c0.53-0.63,1.24-1.41,2.14-2.33c1.97-1.97,3.94-3.49,5.9-4.55c1.98-1.08,3.78-1.62,5.42-1.62
			c1,0,1.8,0.27,2.41,0.8c0.6,0.53,0.9,1.23,0.9,2.11c0,0.21-0.02,0.42-0.07,0.65C140.44,121.26,140.38,121.52,140.29,121.78
			L140.29,121.78z M149.1,135.27l8.16-12.24c0.08-0.13,0.21-0.33,0.4-0.58c1.05-1.57,1.59-2.63,1.59-3.19c0-0.28-0.06-0.49-0.2-0.63
			c-0.14-0.14-0.36-0.2-0.66-0.2c-0.68,0-1.55,0.43-2.63,1.29c-1.06,0.86-2.64,2.4-4.73,4.62c-0.43,0.45-0.94,1.04-1.54,1.75
			c-0.71,0.87-1.18,1.31-1.42,1.31c-0.08,0-0.14-0.03-0.21-0.08c-0.06-0.05-0.09-0.1-0.09-0.17c0-0.17,0.09-0.38,0.29-0.67
			c0.19-0.28,0.58-0.75,1.16-1.4l1.98-2.18c2.03-2.17,3.56-3.63,4.58-4.38c1.04-0.74,1.98-1.12,2.85-1.12c0.75,0,1.35,0.27,1.8,0.8
			c0.43,0.53,0.65,1.26,0.65,2.18c0,0.94-0.2,1.95-0.6,3.03c-0.4,1.08-1.03,2.32-1.91,3.74c3.18-3.6,5.63-6.11,7.34-7.53
			c1.7-1.43,3.07-2.15,4.09-2.15c0.72,0,1.29,0.27,1.72,0.83c0.43,0.55,0.65,1.28,0.65,2.21c0,1.57-1.04,3.76-3.1,6.58
			c-0.35,0.48-0.61,0.83-0.76,1.07c-1.15,1.56-1.93,2.71-2.33,3.46c-0.4,0.74-0.6,1.36-0.6,1.83c0,0.37,0.09,0.65,0.25,0.84
			c0.17,0.2,0.43,0.3,0.77,0.3c0.53,0,1.38-0.46,2.54-1.38c1.16-0.93,2.57-2.25,4.24-3.99c0.48-0.49,1.05-1.1,1.69-1.83
			c0.65-0.73,1.04-1.1,1.19-1.1c0.11,0,0.19,0.04,0.27,0.11c0.08,0.07,0.12,0.13,0.12,0.2c0,0.32-0.91,1.42-2.73,3.27l-0.37,0.38
			c-1.74,1.77-3.19,3.1-4.35,3.97c-1.16,0.87-2.06,1.3-2.67,1.3c-0.9,0-1.62-0.41-2.18-1.23c-0.55-0.82-0.83-1.89-0.83-3.22
			c0-0.95,0.25-1.96,0.76-2.99c0.5-1.05,1.59-2.62,3.26-4.72c0.22-0.29,0.54-0.68,0.95-1.17c1.2-1.48,1.81-2.48,1.81-2.97
			c0-0.26-0.05-0.45-0.16-0.54c-0.1-0.1-0.28-0.16-0.55-0.16c-0.98,0-2.92,1.46-5.82,4.39c-2.89,2.92-6.33,6.9-10.32,11.94
			L149.1,135.27L149.1,135.27z M223.28,92.36c-5.97,1.56-10.93,4.25-14.87,8.08c-3.95,3.84-5.91,7.7-5.91,11.58
			c0,1.82,0.49,3.24,1.49,4.26c0.99,1.02,2.36,1.53,4.12,1.53c1.74,0,3.58-0.55,5.54-1.65c1.95-1.11,3.83-2.66,5.62-4.69
			c1.91-2.11,3.36-4.31,4.36-6.6c1-2.28,1.5-4.55,1.5-6.78c0-1.3-0.15-2.42-0.44-3.32C224.38,93.86,223.92,93.07,223.28,92.36
			L223.28,92.36z M243.71,93.93c-2.35,1.88-5.5,6.52-9.44,13.92c-2.38,4.39-4.29,7.8-5.77,10.21c-3.43,5.57-7.25,9.9-11.45,12.95
			c-4.21,3.05-8.42,4.56-12.66,4.56c-2.31,0-4.18-0.5-5.62-1.5c-1.45-1-2.16-2.28-2.16-3.83c0-1.03,0.27-1.88,0.82-2.56
			c0.56-0.68,1.24-1.03,2.05-1.03c0.73,0,1.36,0.28,1.88,0.82c0.55,0.54,0.82,1.18,0.82,1.92c0,0.31-0.13,0.78-0.37,1.43
			c-0.26,0.64-0.38,1.11-0.38,1.39c0,0.65,0.38,1.21,1.16,1.69c0.78,0.47,1.77,0.7,2.98,0.7c3.24,0,6.37-1.46,9.36-4.36
			c3-2.91,6.54-8.11,10.66-15.55c3.3-5.94,6.2-10.4,8.71-13.42c2.52-3.02,5.32-5.64,8.43-7.87c-1.35-0.75-2.91-1.32-4.68-1.67
			c-1.77-0.36-3.85-0.54-6.23-0.54c-1.21,0-2.39,0.08-3.53,0.22c-1.15,0.14-2.29,0.37-3.43,0.67c0.79,1.12,1.38,2.3,1.77,3.53
			c0.39,1.25,0.59,2.58,0.59,4.01c0,2.43-0.53,4.9-1.59,7.39c-1.07,2.49-2.53,4.69-4.36,6.59c-1.64,1.7-3.6,3.08-5.89,4.14
			c-2.29,1.06-4.42,1.59-6.37,1.59c-2.4,0-4.26-0.64-5.59-1.92c-1.33-1.28-1.99-3.08-1.99-5.38c0-3.87,2.01-7.8,6.03-11.79
			c4.02-4,9.04-6.87,15.07-8.61c-0.98-0.68-2.05-1.17-3.23-1.49c-1.16-0.33-2.54-0.48-4.13-0.48c-2.72,0-5.52,0.85-8.37,2.53
			c-2.86,1.68-5.22,3.88-7.09,6.58c-0.77,1.16-1.42,2.41-1.95,3.74c-0.52,1.32-0.8,2-0.87,2c-0.15,0-0.25-0.04-0.33-0.13
			c-0.07-0.08-0.11-0.19-0.11-0.34c0-0.62,0.34-1.63,1.03-3.06c0.68-1.42,1.55-2.8,2.61-4.15c1.93-2.52,4.29-4.48,7.11-5.9
			c2.8-1.43,5.69-2.13,8.66-2.13c1.68,0,3.21,0.21,4.61,0.61c1.38,0.41,2.62,1.02,3.67,1.81c1.38-0.3,2.7-0.53,3.99-0.69
			c1.29-0.16,2.58-0.23,3.87-0.23c2.36,0,4.54,0.18,6.57,0.53c2.02,0.36,3.85,0.89,5.48,1.58c0.28-0.15,0.63-0.38,1.08-0.67
			c1.14-0.77,1.91-1.14,2.27-1.14c0.1,0,0.19,0.03,0.27,0.08c0.07,0.04,0.1,0.1,0.1,0.17c0,0.2-0.33,0.5-0.98,0.89
			c-0.67,0.4-1.24,0.78-1.71,1.12c1.93,0.99,3.43,2.26,4.52,3.79c1.1,1.55,1.64,3.18,1.64,4.92c0,2.81-1.3,5.4-3.92,7.8
			c-2.62,2.39-5.76,3.82-9.41,4.3c1.55,0.85,2.75,1.95,3.61,3.26c0.86,1.32,1.29,2.71,1.29,4.19c0,1.48-0.34,3.51-1,6.04
			c-0.66,2.53-1,4.16-1,4.9c0,0.53,0.14,0.99,0.42,1.37c0.27,0.38,0.62,0.57,1.02,0.57c0.72,0,1.61-0.4,2.71-1.18
			c1.09-0.78,2.35-1.94,3.76-3.45c0.51-0.55,1.07-1.2,1.68-1.96c0.59-0.75,0.96-1.13,1.09-1.13c0.1,0,0.19,0.03,0.26,0.08
			c0.07,0.05,0.1,0.11,0.1,0.16c0,0.19-0.21,0.57-0.62,1.14c-0.4,0.56-0.97,1.27-1.71,2.08c-1.67,1.88-3.17,3.28-4.49,4.2
			c-1.32,0.92-2.48,1.38-3.48,1.38c-1.2,0-2.24-0.65-3.15-1.98c-0.91-1.32-1.36-2.92-1.36-4.79c0-1.38,0.31-3.28,0.93-5.73
			c0.62-2.43,0.93-4.15,0.93-5.13c0-0.94-0.21-1.72-0.63-2.32c-0.42-0.6-0.93-0.9-1.55-0.9c-0.16,0-0.52,0.03-1.07,0.09
			c-0.55,0.07-1.02,0.1-1.38,0.1c-0.6,0-1.08-0.11-1.4-0.32c-0.32-0.2-0.49-0.5-0.49-0.89c0-0.33,0.17-0.61,0.52-0.84
			c0.35-0.24,0.79-0.36,1.32-0.36c0.41,0,0.99,0.1,1.76,0.3c0.77,0.2,1.31,0.29,1.61,0.29c2.04,0,4.11-1.3,6.21-3.88
			c2.09-2.59,3.14-5.48,3.14-8.69c0-1.35-0.28-2.56-0.83-3.63C245.58,95.58,244.77,94.66,243.71,93.93L243.71,93.93z M254.72,132.44
			c0,0.6,0.14,1.07,0.4,1.42c0.27,0.34,0.64,0.52,1.11,0.52c0.69,0,1.55-0.35,2.58-1.05c1.04-0.68,2.12-1.66,3.23-2.9
			c1.7-1.86,3.01-3.68,3.95-5.45c0.93-1.77,1.38-3.3,1.38-4.58c0-0.55-0.2-1.02-0.59-1.4c-0.4-0.37-0.89-0.57-1.46-0.57
			c-1.02,0-2.13,0.44-3.34,1.33c-1.2,0.89-2.4,2.15-3.58,3.76c-1.15,1.61-2.05,3.23-2.7,4.84
			C255.05,129.98,254.72,131.34,254.72,132.44L254.72,132.44z M268.14,121.78l2.59-3.77l4.13-0.25l-6.9,10.86
			c-1.02,1.6-1.67,2.7-1.93,3.32c-0.26,0.6-0.39,1.15-0.39,1.6c0,0.34,0.07,0.59,0.21,0.75c0.15,0.15,0.4,0.23,0.74,0.23
			c0.52,0,1.37-0.45,2.5-1.35c1.14-0.89,2.56-2.22,4.28-4c0.48-0.49,1.06-1.08,1.69-1.81c0.65-0.71,1.04-1.07,1.18-1.07
			c0.12,0,0.21,0.03,0.27,0.07c0.07,0.05,0.09,0.11,0.09,0.18c0,0.23-0.23,0.63-0.7,1.2c-0.47,0.57-1.2,1.34-2.17,2.33
			c-2.21,2.27-3.84,3.75-4.89,4.42c-1.06,0.68-2.04,1.03-2.97,1.03c-0.83,0-1.48-0.26-1.92-0.8c-0.44-0.53-0.66-1.3-0.66-2.33
			c0-0.27,0.02-0.57,0.06-0.9c0.04-0.33,0.12-0.83,0.24-1.49c-1.42,1.82-2.82,3.2-4.16,4.12c-1.34,0.93-2.6,1.39-3.76,1.39
			c-1.13,0-2.01-0.57-2.66-1.7c-0.64-1.14-0.96-2.71-0.96-4.71c0-0.49,0.03-0.97,0.1-1.46c0.08-0.5,0.17-0.98,0.3-1.44
			c-0.24,0.38-0.48,0.69-0.7,0.9c-0.23,0.22-0.42,0.32-0.59,0.32c-0.14,0-0.24-0.02-0.29-0.06c-0.05-0.04-0.08-0.11-0.08-0.17
			c0-0.17,0.26-0.57,0.8-1.2c0.53-0.63,1.25-1.41,2.14-2.33c1.97-1.97,3.93-3.49,5.9-4.55c1.98-1.08,3.78-1.62,5.42-1.62
			c1,0,1.8,0.27,2.4,0.8c0.6,0.53,0.91,1.23,0.91,2.11c0,0.21-0.02,0.42-0.06,0.65C268.29,121.26,268.23,121.52,268.14,121.78
			L268.14,121.78z M276.89,135.27l8.22-12.24l0.24-0.4c1.16-1.72,1.75-2.83,1.75-3.37c0-0.28-0.07-0.49-0.2-0.63
			c-0.14-0.14-0.36-0.2-0.66-0.2c-0.68,0-1.55,0.43-2.63,1.29c-1.07,0.86-2.65,2.4-4.73,4.62c-0.43,0.45-0.94,1.04-1.54,1.75
			c-0.71,0.87-1.18,1.31-1.41,1.31c-0.08,0-0.15-0.03-0.21-0.08c-0.06-0.05-0.09-0.1-0.09-0.17c0-0.17,0.09-0.38,0.29-0.67
			c0.19-0.28,0.57-0.75,1.15-1.4l1.99-2.18c2.04-2.17,3.56-3.63,4.59-4.38c1.03-0.74,1.97-1.12,2.85-1.12c0.75,0,1.34,0.27,1.78,0.8
			c0.44,0.53,0.67,1.26,0.67,2.18c0,0.94-0.2,1.95-0.59,3.03c-0.4,1.08-1.04,2.32-1.92,3.74c2.82-3.55,5.06-6.07,6.71-7.53
			c1.66-1.48,3.05-2.21,4.2-2.21c0.73,0,1.34,0.25,1.82,0.75c0.47,0.51,0.7,1.13,0.7,1.89c0,1.1-0.21,2.2-0.63,3.32
			c-0.42,1.12-1.09,2.33-2.01,3.66c3.33-3.78,5.77-6.32,7.32-7.64c1.54-1.32,2.8-1.98,3.75-1.98c0.72,0,1.28,0.28,1.71,0.86
			c0.43,0.57,0.65,1.31,0.65,2.24c0,1.57-1.05,3.76-3.13,6.58c-0.33,0.48-0.58,0.83-0.76,1.07c-1.12,1.56-1.89,2.71-2.28,3.46
			c-0.4,0.74-0.6,1.36-0.6,1.83c0,0.37,0.08,0.65,0.24,0.84c0.17,0.2,0.42,0.3,0.77,0.3c0.52,0,1.37-0.46,2.54-1.38
			c1.16-0.93,2.58-2.25,4.23-3.99c0.48-0.49,1.05-1.1,1.69-1.83c0.65-0.73,1.04-1.1,1.19-1.1c0.11,0,0.19,0.04,0.28,0.11
			c0.08,0.07,0.12,0.13,0.12,0.2c0,0.32-0.91,1.42-2.73,3.27l-0.37,0.38c-1.74,1.77-3.18,3.1-4.34,3.97
			c-1.18,0.87-2.06,1.3-2.67,1.3c-0.9,0-1.62-0.41-2.17-1.23c-0.56-0.82-0.83-1.89-0.83-3.22c0-0.95,0.25-1.96,0.76-2.99
			c0.5-1.05,1.58-2.62,3.25-4.72c0.23-0.29,0.54-0.68,0.95-1.17c1.21-1.48,1.81-2.48,1.81-2.97c-0.02-0.28-0.08-0.48-0.17-0.57
			c-0.09-0.11-0.27-0.17-0.53-0.19c-0.9,0-2.76,1.47-5.54,4.39c-2.79,2.92-6.16,6.92-10.11,12l-4.38,0.44l8.16-12.24
			c0.84-1.24,1.37-2.1,1.6-2.58c0.25-0.48,0.36-0.9,0.36-1.25c0-0.28-0.07-0.48-0.21-0.6c-0.13-0.11-0.36-0.17-0.69-0.17
			c-1.63,0-6.28,4.71-13.91,14.13l-1.84,2.26L276.89,135.27L276.89,135.27z M317.82,132.25c0,0.76,0.16,1.32,0.47,1.68
			c0.32,0.36,0.8,0.55,1.46,0.55c0.69,0,1.58-0.35,2.68-1.03c1.09-0.67,2.18-1.59,3.24-2.7c1.37-1.48,2.46-3.03,3.25-4.68
			c0.8-1.64,1.19-3.14,1.19-4.48c0-0.99-0.21-1.76-0.63-2.32c-0.42-0.56-1-0.85-1.77-0.85c-0.93,0-1.94,0.42-3.01,1.27
			c-1.05,0.85-2.2,2.13-3.4,3.82c-1.1,1.57-1.96,3.14-2.58,4.69C318.12,129.76,317.82,131.11,317.82,132.25L317.82,132.25z
			 M328.37,129.5c0.04,0,0.14,0.02,0.27,0.06c0.31,0.08,0.55,0.13,0.74,0.13c0.82,0,1.69-0.24,2.62-0.73
			c0.93-0.5,1.79-1.18,2.6-2.03l0.8-0.95c0.04-0.04,0.11-0.08,0.23-0.12c0.1-0.04,0.21-0.06,0.29-0.06c0.08,0,0.14,0.03,0.18,0.1
			c0.05,0.06,0.06,0.14,0.06,0.27c0,0.1,0,0.18-0.01,0.22c-0.01,0.03-0.03,0.07-0.05,0.08l-0.7,0.83c-0.85,1.05-1.84,1.85-2.97,2.41
			c-1.1,0.57-2.26,0.85-3.44,0.85c-0.36,0-0.64-0.01-0.85-0.03c-0.22-0.02-0.41-0.04-0.56-0.07c-1.5,1.61-2.96,2.86-4.41,3.74
			c-1.44,0.88-2.74,1.32-3.9,1.32c-1.35,0-2.4-0.57-3.12-1.69c-0.73-1.12-1.1-2.74-1.1-4.85c0-0.38,0.05-0.81,0.13-1.28
			c0.09-0.46,0.2-1,0.37-1.59c-0.34,0.45-0.63,0.78-0.84,0.97c-0.21,0.2-0.39,0.29-0.53,0.29c-0.1,0-0.18-0.01-0.23-0.04
			c-0.05-0.03-0.07-0.1-0.07-0.2c0-0.12,0.16-0.4,0.47-0.8c0.32-0.41,1.02-1.21,2.1-2.42c1.89-2.04,3.79-3.64,5.73-4.79
			c1.95-1.17,3.72-1.75,5.31-1.75c1.33,0,2.38,0.42,3.16,1.23c0.77,0.82,1.16,1.93,1.16,3.32c0,1.08-0.28,2.23-0.82,3.43
			C330.45,126.53,329.57,127.93,328.37,129.5L328.37,129.5z M325.86,116.63c-0.19,0-0.31-0.04-0.39-0.1
			c-0.08-0.07-0.12-0.18-0.14-0.37c0-0.18,0.65-0.72,1.95-1.63c1.3-0.9,2.36-1.94,3.2-3.12c0.34-0.51,0.74-1.35,1.19-2.53
			c0.79-1.95,1.67-2.94,2.64-2.94c0.57,0,1.02,0.17,1.37,0.5c0.33,0.35,0.5,0.79,0.5,1.37c0,1.04-0.49,2.13-1.48,3.3
			c-1,1.15-2.42,2.27-4.28,3.36c-1.53,0.9-2.6,1.47-3.19,1.75C326.65,116.49,326.18,116.63,325.86,116.63L325.86,116.63z
			 M336.03,135.27l8.16-12.24c0.07-0.13,0.21-0.33,0.4-0.58c1.06-1.57,1.59-2.63,1.59-3.19c0-0.28-0.06-0.49-0.19-0.63
			c-0.14-0.14-0.35-0.2-0.66-0.2c-0.68,0-1.55,0.43-2.63,1.29c-1.07,0.86-2.65,2.4-4.73,4.62c-0.43,0.45-0.95,1.04-1.55,1.75
			c-0.71,0.87-1.18,1.31-1.41,1.31c-0.09,0-0.14-0.03-0.21-0.08c-0.06-0.05-0.1-0.1-0.1-0.17c0-0.17,0.1-0.38,0.3-0.67
			c0.19-0.28,0.57-0.75,1.15-1.4l1.98-2.18c2.03-2.17,3.57-3.63,4.59-4.38c1.04-0.74,1.97-1.12,2.85-1.12c0.75,0,1.35,0.27,1.79,0.8
			c0.43,0.53,0.66,1.26,0.66,2.18c0,0.94-0.2,1.95-0.6,3.03c-0.39,1.08-1.03,2.32-1.91,3.74c3.18-3.6,5.63-6.11,7.33-7.53
			c1.71-1.43,3.08-2.15,4.09-2.15c0.72,0,1.29,0.27,1.72,0.83c0.42,0.55,0.65,1.28,0.65,2.21c0,1.57-1.04,3.76-3.1,6.58
			c-0.35,0.48-0.61,0.83-0.76,1.07c-1.15,1.56-1.93,2.71-2.33,3.46c-0.39,0.74-0.59,1.36-0.59,1.83c0,0.37,0.09,0.65,0.24,0.84
			c0.16,0.2,0.43,0.3,0.78,0.3c0.53,0,1.38-0.46,2.54-1.38c1.16-0.93,2.58-2.25,4.24-3.99c0.48-0.49,1.04-1.1,1.68-1.83
			c0.65-0.73,1.05-1.1,1.2-1.1c0.1,0,0.18,0.04,0.27,0.11c0.08,0.07,0.12,0.13,0.12,0.2c0,0.32-0.91,1.42-2.73,3.27l-0.37,0.38
			c-1.74,1.77-3.19,3.1-4.35,3.97c-1.17,0.87-2.05,1.3-2.67,1.3c-0.9,0-1.62-0.41-2.18-1.23c-0.55-0.82-0.83-1.89-0.83-3.22
			c0-0.95,0.26-1.96,0.76-2.99c0.5-1.05,1.59-2.62,3.26-4.72c0.22-0.29,0.54-0.68,0.95-1.17c1.2-1.48,1.81-2.48,1.81-2.97
			c0-0.26-0.05-0.45-0.16-0.54c-0.09-0.1-0.28-0.16-0.54-0.16c-0.98,0-2.92,1.46-5.82,4.39c-2.89,2.92-6.33,6.9-10.31,11.94
			L336.03,135.27L336.03,135.27z"/>
		<path class="st2" d="M146.36,167.09c1.48-2.14,3.19-4.07,5.13-5.82c1.92-1.75,4.06-3.28,6.39-4.61c-1.53-1.59-3.14-2.77-4.82-3.55
			c-1.68-0.77-3.49-1.16-5.43-1.16c-2.81,0-5.16,0.73-7.05,2.19c-1.9,1.45-2.85,3.23-2.85,5.34c0,2,0.79,3.7,2.38,5.1
			C141.68,165.97,143.76,166.81,146.36,167.09L146.36,167.09z M149.63,167.31h0.85c2.09,0,4.17-0.23,6.25-0.69
			c2.08-0.47,4.16-1.16,6.24-2.09c2.84-1.25,5.1-2.7,6.79-4.32c1.68-1.63,2.52-3.13,2.52-4.49c0-0.78-0.25-1.4-0.73-1.83
			c-0.49-0.43-1.17-0.64-2.04-0.64c-1.32,0-2.86,0.34-4.64,1.03c-1.78,0.68-3.67,1.68-5.66,2.98c0.8,1.27,1.4,2.25,1.81,2.97
			c0.42,0.71,0.62,1.16,0.62,1.31c0,0.09-0.02,0.16-0.08,0.23c-0.05,0.07-0.1,0.09-0.14,0.09c-0.13,0-0.47-0.49-1.03-1.48
			c-0.57-0.99-1.15-1.9-1.75-2.73c-2.11,1.51-3.91,3.06-5.4,4.67C151.75,163.9,150.55,165.57,149.63,167.31L149.63,167.31z
			 M151.51,184.25c2.88-0.28,5.41-1.46,7.6-3.54c2.2-2.08,3.29-4.19,3.29-6.33c0-0.87-0.24-1.59-0.71-2.15
			c-0.48-0.56-1.09-0.84-1.85-0.84c-1.13,0-2.25,0.46-3.35,1.37c-1.1,0.91-2.12,2.24-3.05,3.97c-0.64,1.19-1.13,2.36-1.45,3.51
			c-0.32,1.15-0.48,2.28-0.48,3.39V184.25L151.51,184.25z M144.93,169.43c-2.57-0.54-4.59-1.61-6.05-3.21
			c-1.46-1.59-2.19-3.53-2.19-5.8c0-2.55,1.03-4.7,3.09-6.47c2.07-1.75,4.62-2.63,7.67-2.63c2.11,0,4.05,0.4,5.83,1.21
			c1.77,0.81,3.5,2.08,5.17,3.81c2.15-1.18,4.19-2.1,6.13-2.75c1.95-0.65,3.58-0.97,4.89-0.97c1.11,0,1.97,0.27,2.58,0.78
			c0.61,0.53,0.92,1.26,0.92,2.21c0,1.65-1,3.4-2.99,5.26c-2,1.86-4.77,3.6-8.33,5.22c-2.2,1.01-4.38,1.79-6.53,2.36
			c-2.16,0.57-4.34,0.94-6.54,1.1c-0.71,1.57-1.25,3.16-1.63,4.76c-0.39,1.6-0.58,3.06-0.58,4.43c0,1.74,0.36,3.08,1.09,4
			c0.73,0.92,1.83,1.43,3.3,1.53c-0.04-0.45-0.08-0.87-0.1-1.26c-0.02-0.4-0.03-0.73-0.03-1.01c0-3.25,0.87-6.02,2.63-8.3
			c1.74-2.28,3.76-3.42,6.01-3.42c1.18,0,2.12,0.37,2.81,1.1c0.69,0.72,1.04,1.7,1.04,2.92c0,2.24-1.14,4.48-3.43,6.71
			c-2.28,2.21-4.97,3.55-8.08,4.01c0.04,0.76,0.17,1.54,0.43,2.35c0.25,0.79,0.38,1.21,0.38,1.22c0,0.07-0.02,0.13-0.07,0.17
			c-0.05,0.04-0.1,0.05-0.19,0.05c-0.18,0-0.41-0.36-0.66-1.06c-0.26-0.69-0.47-1.61-0.65-2.71h-0.9c-1.97,0-3.62-0.74-4.91-2.22
			c-1.29-1.48-1.93-3.4-1.93-5.74c0-1.16,0.15-2.37,0.45-3.61C143.84,172.22,144.3,170.88,144.93,169.43L144.93,169.43z
			 M167.06,182.68c0,0.42,0.1,0.76,0.28,1c0.18,0.25,0.46,0.38,0.79,0.38c0.5,0,1.1-0.25,1.84-0.75c0.74-0.49,1.51-1.18,2.31-2.07
			c1.21-1.33,2.15-2.62,2.81-3.89c0.66-1.26,0.99-2.35,0.99-3.27c0-0.38-0.14-0.73-0.42-0.99c-0.29-0.27-0.64-0.4-1.04-0.4
			c-0.73,0-1.52,0.31-2.38,0.95c-0.86,0.63-1.71,1.53-2.56,2.68c-0.82,1.15-1.46,2.31-1.93,3.46
			C167.29,180.93,167.06,181.9,167.06,182.68L167.06,182.68z M176.64,175.07l1.84-2.69l2.94-0.17l-4.92,7.74
			c-0.72,1.14-1.19,1.92-1.37,2.37c-0.19,0.43-0.28,0.81-0.28,1.13c0,0.24,0.05,0.42,0.15,0.54c0.1,0.1,0.29,0.16,0.53,0.16
			c0.38,0,0.97-0.32,1.78-0.95c0.82-0.63,1.83-1.58,3.05-2.85c0.34-0.35,0.75-0.78,1.21-1.29c0.46-0.51,0.74-0.76,0.84-0.76
			c0.09,0,0.15,0.01,0.2,0.04c0.04,0.03,0.07,0.07,0.07,0.12c0,0.17-0.16,0.45-0.5,0.86c-0.33,0.4-0.86,0.96-1.55,1.66
			c-1.58,1.62-2.74,2.68-3.49,3.16c-0.75,0.48-1.45,0.73-2.11,0.73c-0.59,0-1.05-0.19-1.37-0.56c-0.31-0.39-0.47-0.94-0.47-1.67
			c0-0.19,0.02-0.4,0.04-0.64c0.04-0.24,0.09-0.59,0.17-1.06c-1.01,1.3-2.01,2.28-2.96,2.94c-0.96,0.67-1.85,1-2.68,1
			c-0.81,0-1.43-0.41-1.9-1.21c-0.45-0.81-0.69-1.93-0.69-3.36c0-0.35,0.03-0.69,0.08-1.04c0.05-0.36,0.12-0.7,0.21-1.04
			c-0.17,0.28-0.34,0.5-0.5,0.64c-0.17,0.16-0.3,0.23-0.42,0.23c-0.11,0-0.17-0.01-0.21-0.04c-0.04-0.03-0.05-0.07-0.05-0.12
			c0-0.12,0.19-0.41,0.56-0.86c0.38-0.45,0.89-1,1.53-1.66c1.4-1.4,2.81-2.48,4.21-3.25c1.41-0.76,2.69-1.15,3.87-1.15
			c0.71,0,1.29,0.19,1.72,0.57c0.43,0.38,0.64,0.88,0.64,1.5c0,0.15-0.01,0.3-0.05,0.46C176.74,174.7,176.69,174.88,176.64,175.07
			L176.64,175.07z M187.78,173.1c-1.15,1.16-2.33,2.45-3.55,3.86c-1.22,1.42-1.91,2.13-2.09,2.13c-0.06,0-0.11-0.01-0.15-0.05
			c-0.05-0.04-0.07-0.08-0.07-0.12c0-0.24,1.17-1.63,3.52-4.19c0.96-1.04,1.72-1.86,2.29-2.48c0.26-0.62,0.55-1.09,0.85-1.4
			c0.3-0.32,0.63-0.47,0.98-0.47c0.29,0,0.51,0.07,0.66,0.22c0.16,0.15,0.23,0.35,0.23,0.63c0,0.23-0.07,0.44-0.23,0.63
			c-0.15,0.18-0.39,0.34-0.71,0.49c-0.08,0.02-0.17,0.07-0.31,0.11c-0.54,0.2-0.81,0.7-0.81,1.5c0,0.57,0.14,1.46,0.42,2.65
			c0.28,1.2,0.41,2.08,0.41,2.67c0,0.46-0.04,0.91-0.13,1.34c-0.08,0.41-0.23,0.85-0.44,1.3c0.69-0.68,1.42-1.45,2.2-2.32
			c0.78-0.87,1.23-1.3,1.34-1.3c0.07,0,0.13,0.02,0.19,0.06c0.05,0.05,0.08,0.09,0.08,0.15c0,0.13-0.13,0.36-0.4,0.68
			c-0.25,0.32-0.71,0.82-1.35,1.48c-1.52,1.59-2.78,2.69-3.79,3.29c-1,0.6-2.01,0.91-3.02,0.91c-0.92,0-1.65-0.21-2.21-0.63
			c-0.55-0.43-0.83-0.99-0.83-1.69c0-0.38,0.15-0.71,0.42-1c0.27-0.29,0.6-0.44,0.96-0.44c0.27,0,0.49,0.08,0.67,0.25
			c0.19,0.17,0.28,0.37,0.28,0.6c0,0.17-0.09,0.43-0.28,0.82c-0.18,0.37-0.27,0.67-0.27,0.89c0,0.14,0.06,0.26,0.19,0.34
			c0.12,0.09,0.28,0.14,0.49,0.14c1.01,0,2.02-0.93,3.02-2.79c1-1.85,1.5-4.05,1.5-6.57c0-0.18,0-0.38-0.02-0.63
			C187.83,173.92,187.81,173.56,187.78,173.1L187.78,173.1z M194.45,182.68c0,0.42,0.1,0.76,0.28,1c0.19,0.25,0.46,0.38,0.79,0.38
			c0.49,0,1.1-0.25,1.84-0.75c0.74-0.49,1.51-1.18,2.31-2.07c1.21-1.33,2.15-2.62,2.82-3.89c0.66-1.26,0.99-2.35,0.99-3.27
			c0-0.38-0.14-0.73-0.42-0.99c-0.28-0.27-0.63-0.4-1.04-0.4c-0.73,0-1.52,0.31-2.39,0.95c-0.85,0.63-1.71,1.53-2.55,2.68
			c-0.82,1.15-1.46,2.31-1.93,3.46C194.68,180.93,194.45,181.9,194.45,182.68L194.45,182.68z M204.03,175.07l1.85-2.69l2.94-0.17
			l-4.92,7.74c-0.72,1.14-1.18,1.92-1.37,2.37c-0.19,0.43-0.29,0.81-0.29,1.13c0,0.24,0.05,0.42,0.15,0.54
			c0.1,0.1,0.28,0.16,0.53,0.16c0.37,0,0.97-0.32,1.78-0.95c0.81-0.63,1.83-1.58,3.05-2.85c0.35-0.35,0.76-0.78,1.21-1.29
			c0.47-0.51,0.74-0.76,0.84-0.76c0.09,0,0.15,0.01,0.2,0.04c0.05,0.03,0.06,0.07,0.06,0.12c0,0.17-0.16,0.45-0.5,0.86
			c-0.34,0.4-0.86,0.96-1.55,1.66c-1.58,1.62-2.74,2.68-3.48,3.16c-0.75,0.48-1.45,0.73-2.11,0.73c-0.6,0-1.05-0.19-1.36-0.56
			c-0.31-0.39-0.47-0.94-0.47-1.67c0-0.19,0.02-0.4,0.05-0.64c0.03-0.24,0.09-0.59,0.17-1.06c-1.01,1.3-2,2.28-2.96,2.94
			c-0.96,0.67-1.85,1-2.68,1c-0.81,0-1.43-0.41-1.89-1.21c-0.45-0.81-0.68-1.93-0.68-3.36c0-0.35,0.02-0.69,0.07-1.04
			c0.05-0.36,0.12-0.7,0.21-1.04c-0.17,0.28-0.34,0.5-0.5,0.64c-0.17,0.16-0.3,0.23-0.42,0.23c-0.1,0-0.18-0.01-0.21-0.04
			c-0.04-0.03-0.06-0.07-0.06-0.12c0-0.12,0.19-0.41,0.57-0.86c0.38-0.45,0.89-1,1.53-1.66c1.4-1.4,2.81-2.48,4.21-3.25
			c1.41-0.76,2.69-1.15,3.87-1.15c0.71,0,1.29,0.19,1.72,0.57c0.43,0.38,0.64,0.88,0.64,1.5c0,0.15-0.02,0.3-0.04,0.46
			C204.13,174.7,204.09,174.88,204.03,175.07L204.03,175.07z M260.85,158.32c0,0.3-0.13,0.73-0.4,1.27
			c-0.26,0.55-0.69,1.25-1.27,2.11c-1.35,1.99-2.82,3.46-4.41,4.42c-1.59,0.98-3.33,1.46-5.25,1.46c-1.97,0-3.58-0.46-4.83-1.4
			c-1.25-0.93-1.88-2.12-1.88-3.55c0-1.27,0.43-2.48,1.27-3.62c0.84-1.14,2.06-2.16,3.65-3.06c1.87-1.03,4.11-1.78,6.7-2.24
			c2.61-0.47,6-0.7,10.18-0.7c0.31,0,1.12,0.01,2.44,0.04c1.32,0.03,2.47,0.05,3.46,0.05c2.58,0,5.16-0.16,7.72-0.48
			c0.51-0.06,0.82-0.09,0.95-0.09c0.14,0,0.26,0.03,0.34,0.09c0.09,0.07,0.14,0.16,0.14,0.26c0,0.53-0.74,1.14-2.22,1.81
			c-1.48,0.67-3.15,1.01-5,1.01c-1.24,0-3.43-0.18-6.59-0.56c-3.16-0.37-5.71-0.56-7.64-0.56c-4.31,0-7.84,0.75-10.59,2.23
			c-2.74,1.48-4.11,3.33-4.11,5.55c0,1.01,0.46,1.87,1.39,2.55c0.92,0.68,2.1,1.03,3.51,1.03c1.81,0,3.6-0.47,5.39-1.4
			c1.78-0.95,3.43-2.3,4.94-4.06c0.41-0.48,0.82-1.02,1.24-1.62c0.42-0.59,0.67-0.89,0.77-0.89c0.03,0,0.05,0.01,0.07,0.05
			C260.84,158.09,260.85,158.18,260.85,158.32L260.85,158.32z M256.37,170.72c-2.52,0.82-4.86,2.28-7,4.37
			c-0.53,0.52-0.87,0.78-1,0.78c-0.03-0.01-0.05-0.03-0.06-0.05c-0.02-0.02-0.03-0.06-0.03-0.11c0-0.21,0.19-0.53,0.57-0.97
			c0.38-0.42,0.96-0.96,1.75-1.6c0.85-0.7,1.8-1.32,2.82-1.86c1.04-0.54,2.22-1.04,3.55-1.47c2.1-3.76,4.38-6.93,6.8-9.49
			c2.41-2.57,4.11-3.85,5.07-3.85c0.07,0,0.11,0,0.13,0.01c0.01,0,0.03,0.03,0.04,0.08c0,0.05-0.13,0.18-0.38,0.39
			c-2.69,2.59-5.35,6.7-7.96,12.33c2.45-0.28,4.92-1.11,7.42-2.52c0.59-0.34,0.96-0.5,1.09-0.5c0.1,0,0.18,0.02,0.25,0.07
			c0.07,0.05,0.09,0.1,0.09,0.17c0,0.06-0.16,0.28-0.5,0.67c-1.56,1.81-2.95,3.91-4.16,6.26c-0.07,0.17-0.17,0.4-0.3,0.7
			c-0.31,0.67-0.6,1.08-0.9,1.27c-0.42,0.28-0.92,0.53-1.51,0.76c-0.58,0.23-0.96,0.35-1.15,0.35c-0.06,0-0.1-0.04-0.15-0.12
			c-0.04-0.08-0.06-0.19-0.06-0.32c0-0.4,0.55-1.39,1.64-2.95c1.11-1.56,2.45-3.15,4.04-4.79c-0.99,0.44-2,0.8-3.01,1.08
			c-1.03,0.28-2.1,0.47-3.22,0.57c-2.77,5.01-6.08,8.75-9.93,11.22c-3.85,2.46-8.28,3.69-13.31,3.69c-3.73,0-6.67-0.82-8.83-2.48
			c-2.16-1.64-3.24-3.87-3.24-6.7c0-2.98,1.14-5.48,3.42-7.51c2.28-2.03,5.1-3.05,8.48-3.05c2.59,0,4.71,0.63,6.36,1.91
			c1.64,1.27,2.47,2.89,2.47,4.84c0,2.11-0.93,3.93-2.79,5.5c-1.87,1.57-4.1,2.36-6.69,2.36c-1.41,0-2.7-0.23-3.86-0.66
			c-1.16-0.45-1.74-0.83-1.74-1.18c0-0.05,0.03-0.08,0.07-0.1c0.04-0.03,0.1-0.04,0.19-0.04c0.07,0,0.26,0.08,0.56,0.22
			c1.55,0.74,3.1,1.12,4.66,1.12c2.43,0,4.49-0.66,6.17-1.98c1.68-1.32,2.53-2.89,2.53-4.74c0-1.64-0.62-2.96-1.87-3.96
			c-1.24-1-2.92-1.5-5-1.5c-3.28,0-6.11,0.94-8.51,2.81c-2.39,1.87-3.58,4.06-3.58,6.55c0,2.39,1.02,4.33,3.03,5.81
			c2.03,1.47,4.7,2.21,8.02,2.21c4.26,0,7.93-1.08,11.02-3.24C251,178.94,253.82,175.48,256.37,170.72L256.37,170.72z
			 M275.77,180.75l-0.07,0.11c-0.78,1.26-1.18,2.11-1.18,2.54c0,0.26,0.06,0.47,0.17,0.6c0.12,0.14,0.3,0.21,0.53,0.21
			c0.39,0,0.97-0.31,1.74-0.91c0.76-0.61,1.8-1.58,3.11-2.92c0.37-0.37,0.76-0.8,1.2-1.32c0.44-0.51,0.72-0.77,0.86-0.77
			c0.08,0,0.14,0.01,0.19,0.05c0.05,0.04,0.08,0.09,0.08,0.12c0,0.15-0.11,0.36-0.31,0.64c-0.22,0.28-0.69,0.8-1.44,1.57
			c-1.31,1.39-2.43,2.43-3.35,3.14c-0.93,0.71-1.63,1.06-2.12,1.06c-0.63,0-1.13-0.28-1.52-0.84c-0.38-0.56-0.58-1.29-0.58-2.2
			c0-0.16,0.01-0.34,0.05-0.55c0.02-0.21,0.07-0.45,0.13-0.75c-1.19,1.39-2.3,2.46-3.31,3.2c-1.01,0.76-1.86,1.13-2.55,1.13
			c-0.74,0-1.34-0.26-1.79-0.77c-0.46-0.51-0.68-1.19-0.68-2.05c0-1.18,1.1-3.42,3.3-6.71l0.33-0.48c-0.8,0.79-1.64,1.69-2.52,2.7
			c-0.87,1.01-1.39,1.5-1.56,1.5c-0.05,0-0.1-0.01-0.15-0.03c-0.04-0.03-0.07-0.06-0.07-0.11c0-0.17,0.48-0.8,1.42-1.89
			c0.95-1.09,2.36-2.62,4.26-4.61l3.22-0.18l-4.44,6.94l-0.28,0.46c-1.28,2.03-1.91,3.28-1.91,3.76c0,0.22,0.07,0.4,0.21,0.57
			c0.13,0.16,0.31,0.24,0.52,0.24c1.19,0,2.75-1.04,4.68-3.11c1.92-2.08,3.98-4.97,6.19-8.67l3.01-0.18L275.77,180.75L275.77,180.75
			z M282.63,184.69l5.83-8.72c0.05-0.1,0.15-0.24,0.28-0.41c0.75-1.12,1.13-1.89,1.13-2.28c0-0.2-0.05-0.35-0.14-0.45
			c-0.09-0.09-0.25-0.14-0.47-0.14c-0.49,0-1.11,0.31-1.88,0.92c-0.76,0.61-1.89,1.72-3.37,3.3c-0.31,0.32-0.68,0.74-1.1,1.25
			c-0.5,0.62-0.84,0.93-1.01,0.93c-0.05,0-0.1-0.01-0.15-0.05c-0.04-0.04-0.07-0.08-0.07-0.12c0-0.12,0.07-0.28,0.21-0.48
			c0.13-0.2,0.41-0.53,0.82-1l1.42-1.55c1.45-1.54,2.54-2.59,3.27-3.12c0.73-0.53,1.41-0.81,2.03-0.81c0.54,0,0.97,0.19,1.28,0.57
			c0.31,0.38,0.47,0.89,0.47,1.55c0,0.68-0.14,1.39-0.43,2.17c-0.28,0.76-0.74,1.66-1.36,2.66c2.27-2.57,4.01-4.36,5.23-5.37
			c1.21-1.02,2.19-1.53,2.92-1.53c0.52,0,0.92,0.2,1.23,0.59c0.31,0.4,0.46,0.92,0.46,1.57c0,1.12-0.75,2.69-2.21,4.69
			c-0.25,0.34-0.44,0.59-0.54,0.77c-0.82,1.11-1.37,1.93-1.66,2.46c-0.28,0.53-0.42,0.97-0.42,1.3c0,0.26,0.06,0.47,0.17,0.6
			c0.12,0.14,0.31,0.21,0.56,0.21c0.38,0,0.98-0.33,1.81-0.99c0.83-0.66,1.84-1.6,3.02-2.84c0.34-0.35,0.75-0.78,1.2-1.3
			c0.46-0.52,0.75-0.78,0.85-0.78c0.08,0,0.13,0.02,0.19,0.07c0.06,0.06,0.09,0.09,0.09,0.15c0,0.23-0.65,1.01-1.95,2.33l-0.26,0.27
			c-1.24,1.26-2.28,2.21-3.11,2.83c-0.82,0.61-1.46,0.92-1.9,0.92c-0.64,0-1.16-0.29-1.55-0.88c-0.39-0.58-0.59-1.35-0.59-2.3
			c0-0.67,0.18-1.39,0.54-2.13c0.36-0.74,1.13-1.86,2.33-3.37c0.16-0.21,0.39-0.48,0.68-0.84c0.86-1.05,1.29-1.77,1.29-2.11
			c0-0.18-0.04-0.32-0.12-0.39c-0.07-0.07-0.2-0.11-0.39-0.11c-0.7,0-2.08,1.03-4.15,3.13c-2.05,2.08-4.51,4.91-7.36,8.51
			L282.63,184.69L282.63,184.69z M305.15,179.64c2-0.44,3.71-1.3,5.13-2.59c1.43-1.27,2.14-2.47,2.14-3.6
			c0-0.25-0.07-0.46-0.23-0.64c-0.15-0.17-0.34-0.26-0.55-0.26c-0.98,0-2.13,0.69-3.44,2.05
			C306.9,175.98,305.88,177.65,305.15,179.64L305.15,179.64z M302.73,178.15c-0.25,0.32-0.45,0.55-0.6,0.69
			c-0.16,0.14-0.28,0.21-0.39,0.21c-0.06,0-0.13-0.01-0.16-0.03c-0.04-0.03-0.04-0.08-0.04-0.15c0-0.1,0.15-0.34,0.46-0.73
			c0.3-0.39,0.73-0.87,1.28-1.47c1.37-1.5,2.76-2.65,4.16-3.46c1.41-0.79,2.75-1.2,4.01-1.2c0.75,0,1.34,0.2,1.79,0.58
			c0.45,0.38,0.67,0.88,0.67,1.49c0,1.24-0.81,2.43-2.44,3.59c-1.64,1.15-3.83,2.04-6.56,2.66c-0.09,0.54-0.14,0.93-0.17,1.18
			c-0.03,0.24-0.04,0.44-0.04,0.61c0,0.66,0.16,1.16,0.47,1.53c0.31,0.37,0.76,0.55,1.33,0.55c0.76,0,1.56-0.26,2.42-0.76
			c0.87-0.49,1.89-1.34,3.08-2.52c0.5-0.49,1.03-1.06,1.59-1.7c0.56-0.63,0.89-0.94,1.02-0.94c0.08,0,0.14,0.02,0.19,0.07
			c0.05,0.04,0.08,0.09,0.08,0.15c0,0.13-0.15,0.36-0.42,0.7c-0.28,0.34-0.9,1-1.86,1.99c-1.31,1.31-2.47,2.25-3.46,2.82
			c-0.99,0.57-1.94,0.85-2.86,0.85c-1.11,0-2.02-0.46-2.73-1.37c-0.71-0.91-1.07-2.07-1.07-3.46c0-0.3,0.02-0.6,0.07-0.91
			C302.58,178.81,302.64,178.49,302.73,178.15L302.73,178.15z M315.04,184.64l5.82-8.68l0.17-0.28c0.83-1.23,1.25-2.02,1.25-2.4
			c0-0.2-0.05-0.35-0.14-0.45c-0.1-0.09-0.26-0.14-0.47-0.14c-0.49,0-1.11,0.31-1.88,0.92c-0.76,0.61-1.89,1.71-3.37,3.3
			c-0.31,0.32-0.68,0.74-1.1,1.25c-0.51,0.63-0.85,0.94-1.01,0.94c-0.06,0-0.1-0.01-0.15-0.05c-0.05-0.04-0.07-0.08-0.07-0.11
			c0-0.12,0.07-0.28,0.21-0.49c0.14-0.2,0.41-0.53,0.82-1l1.42-1.55c1.45-1.54,2.54-2.59,3.27-3.12c0.74-0.53,1.41-0.81,2.03-0.81
			c0.51,0,0.92,0.18,1.25,0.55c0.33,0.37,0.49,0.83,0.49,1.38c0,0.71-0.14,1.44-0.4,2.18c-0.27,0.74-0.86,1.87-1.74,3.37l0.04-0.04
			c1.61-1.56,2.88-2.73,3.8-3.52c0.57-1.52,1.12-2.55,1.65-3.1c0.53-0.54,1.21-0.82,2.02-0.82c0.29,0,0.54,0.07,0.73,0.21
			c0.2,0.13,0.3,0.3,0.3,0.52c0,0.51-0.87,1.4-2.61,2.68c-0.29,0.23-0.52,0.39-0.67,0.51c-0.66,0.47-1.13,0.98-1.42,1.5
			c-0.28,0.53-0.42,1.13-0.42,1.79c0,0.37,0.1,0.66,0.32,0.88c0.21,0.22,0.48,0.33,0.8,0.33c0.74,0,1.5-0.36,2.25-1.08
			c0.76-0.71,1.15-1.07,1.16-1.07c0.09,0.01,0.15,0.04,0.19,0.07c0.05,0.04,0.07,0.08,0.07,0.14c0,0.36-0.43,0.86-1.29,1.53
			c-0.85,0.67-1.61,0.99-2.28,0.99c-0.61,0-1.08-0.15-1.39-0.45c-0.32-0.29-0.49-0.73-0.49-1.3c0-0.22,0.05-0.5,0.14-0.84
			c0.08-0.33,0.23-0.77,0.43-1.31c-0.88,0.74-1.86,1.71-2.93,2.88c-1.08,1.17-2.3,2.63-3.69,4.38L315.04,184.64L315.04,184.64z
			 M331.61,182.68c0,0.42,0.09,0.76,0.28,1c0.19,0.25,0.46,0.38,0.79,0.38c0.49,0,1.11-0.25,1.85-0.75
			c0.74-0.49,1.51-1.18,2.31-2.07c1.21-1.33,2.15-2.62,2.81-3.89c0.66-1.26,0.99-2.35,0.99-3.27c0-0.38-0.14-0.73-0.42-0.99
			c-0.28-0.27-0.64-0.4-1.04-0.4c-0.73,0-1.52,0.31-2.38,0.95c-0.86,0.63-1.71,1.53-2.55,2.68c-0.82,1.15-1.47,2.31-1.93,3.46
			C331.83,180.93,331.61,181.9,331.61,182.68L331.61,182.68z M341.18,175.07l1.85-2.69l2.94-0.17l-4.92,7.74
			c-0.73,1.14-1.19,1.92-1.37,2.37c-0.19,0.43-0.29,0.81-0.29,1.13c0,0.24,0.05,0.42,0.15,0.54c0.11,0.1,0.29,0.16,0.53,0.16
			c0.37,0,0.97-0.32,1.78-0.95c0.82-0.63,1.83-1.58,3.05-2.85c0.34-0.35,0.75-0.78,1.2-1.29c0.47-0.51,0.75-0.76,0.85-0.76
			c0.09,0,0.15,0.01,0.19,0.04c0.05,0.03,0.06,0.07,0.06,0.12c0,0.17-0.16,0.45-0.5,0.86c-0.34,0.4-0.86,0.96-1.55,1.66
			c-1.57,1.62-2.74,2.68-3.48,3.16c-0.75,0.48-1.46,0.73-2.11,0.73c-0.6,0-1.05-0.19-1.37-0.56c-0.31-0.39-0.47-0.94-0.47-1.67
			c0-0.19,0.02-0.4,0.05-0.64c0.03-0.24,0.09-0.59,0.17-1.06c-1.02,1.3-2.01,2.28-2.97,2.94c-0.95,0.67-1.86,1-2.68,1
			c-0.81,0-1.43-0.41-1.89-1.21c-0.46-0.81-0.69-1.93-0.69-3.36c0-0.35,0.02-0.69,0.07-1.04c0.06-0.36,0.13-0.7,0.21-1.04
			c-0.17,0.28-0.35,0.5-0.5,0.64c-0.17,0.16-0.3,0.23-0.42,0.23c-0.1,0-0.17-0.01-0.21-0.04c-0.04-0.03-0.06-0.07-0.06-0.12
			c0-0.12,0.19-0.41,0.57-0.86c0.39-0.45,0.89-1,1.54-1.66c1.4-1.4,2.8-2.48,4.21-3.25c1.41-0.76,2.69-1.15,3.86-1.15
			c0.71,0,1.28,0.19,1.72,0.57c0.43,0.38,0.64,0.88,0.64,1.5c0,0.15-0.01,0.3-0.04,0.46C341.29,174.7,341.24,174.88,341.18,175.07
			L341.18,175.07z"/>
		<path class="st2" d="M350.75,174.82c-0.8,0.84-1.62,1.75-2.49,2.76c-0.86,1.01-1.37,1.51-1.53,1.51c-0.06,0-0.11-0.01-0.15-0.05
			c-0.05-0.04-0.07-0.08-0.07-0.13c0-0.11,0.07-0.28,0.21-0.48c0.13-0.2,0.41-0.54,0.82-1.01l1.43-1.55c0.9-0.98,1.72-1.9,2.46-2.75
			c0.73-0.85,1.21-1.43,1.43-1.74l8.83-13.7l2.91-0.39l-13.8,21.88c-0.95,1.5-1.56,2.5-1.8,3.01c-0.26,0.51-0.38,0.91-0.38,1.2
			c0,0.23,0.08,0.43,0.23,0.6c0.15,0.17,0.35,0.26,0.58,0.26c0.55,0,1.15-0.23,1.83-0.69c0.68-0.46,1.87-1.54,3.55-3.23
			c0.33-0.33,0.73-0.76,1.19-1.28c0.45-0.51,0.74-0.77,0.87-0.77c0.08,0,0.13,0.02,0.18,0.06c0.05,0.05,0.08,0.09,0.08,0.15
			c0,0.13-0.13,0.35-0.37,0.66c-0.24,0.31-0.8,0.91-1.68,1.82c-1.51,1.53-2.64,2.56-3.41,3.09c-0.78,0.53-1.46,0.8-2.06,0.8
			c-0.72,0-1.32-0.26-1.76-0.77c-0.44-0.51-0.67-1.19-0.67-2.05c0-1.18,1.08-3.39,3.23-6.65L350.75,174.82L350.75,174.82z"/>
	</g>
</g>
</svg>
